<?xml version="1.0" standalone="no"?>
<!DOCTYPE svg PUBLIC "-//W3C//DTD SVG 20010904//EN"
 "http://www.w3.org/TR/2001/REC-SVG-20010904/DTD/svg10.dtd">
<svg version="1.0" xmlns="http://www.w3.org/2000/svg"
 width="1181.000000pt" height="1181.000000pt" viewBox="0 0 1181.000000 1181.000000"
 preserveAspectRatio="xMidYMid meet">

<g transform="translate(0.000000,1181.000000) scale(0.100000,-0.100000)"
fill="#000000" stroke="none">
<path d="M3975 10506 c-185 -43 -335 -150 -433 -307 -33 -54 -81 -209 -88
-285 -17 -187 65 -396 209 -531 61 -56 180 -127 215 -126 19 0 844 -305 852
-315 3 -4 22 -15 43 -24 45 -21 119 -88 147 -134 31 -49 44 -146 30 -220 -17
-90 -15 -88 -103 -65 -381 100 -698 7 -899 -263 -111 -147 -221 -417 -234
-571 -5 -65 -22 -121 -85 -294 -44 -118 -79 -216 -79 -218 0 -2 -34 -3 -76 -3
-41 0 -84 -5 -95 -10 -26 -14 -49 -62 -49 -103 0 -31 4 -35 31 -41 17 -3 46
-6 63 -6 65 0 65 2 -39 -281 -113 -307 -152 -403 -304 -748 -135 -305 -181
-419 -214 -531 -48 -159 -85 -373 -107 -617 -10 -107 -9 -126 5 -153 21 -41
111 -106 234 -169 56 -29 101 -54 101 -56 0 -3 -25 -71 -55 -151 -30 -81 -55
-152 -55 -158 0 -6 91 -45 203 -87 220 -83 206 -82 232 -10 l14 40 -129 47
c-70 25 -133 50 -139 54 -8 4 -2 31 20 88 17 45 34 82 37 82 4 0 52 -17 108
-38 88 -34 102 -37 111 -24 8 14 23 11 119 -24 l109 -39 5 -179 5 -178 61 -23
62 -23 133 149 134 150 53 -6 c99 -10 121 3 204 117 201 279 322 503 405 743
13 39 66 210 118 380 52 171 118 378 148 460 62 170 197 528 200 532 2 1 31
-16 65 -39 l63 -41 26 25 c17 18 27 40 30 72 6 46 5 47 -56 104 l-63 58 83
219 c63 169 91 231 122 270 66 82 145 274 183 445 26 114 24 295 -4 393 -54
189 -163 333 -347 457 -74 50 -255 140 -282 140 -21 0 -22 15 -8 71 43 159 -5
318 -121 409 -21 17 -47 38 -58 46 -10 9 -226 92 -480 186 -253 93 -485 180
-515 194 -110 51 -220 170 -273 295 -90 216 -41 466 125 633 121 121 283 184
447 173 64 -4 117 -20 365 -112 160 -59 294 -110 298 -114 4 -4 -42 -142 -104
-305 -61 -164 -109 -299 -107 -301 1 -2 239 -91 528 -199 289 -107 687 -256
885 -330 198 -74 363 -131 367 -128 6 7 338 896 335 898 -4 2 -1594 594 -1687
628 l-96 34 -43 -116 c-24 -65 -45 -118 -46 -120 -5 -5 -499 181 -505 189 -26
38 -248 60 -355 35z m1795 -473 c393 -146 718 -268 721 -272 6 -6 -209 -593
-222 -605 -3 -3 -296 102 -650 233 -863 320 -825 305 -821 322 4 16 212 580
219 592 3 5 12 5 22 2 9 -4 338 -126 731 -272z m-1889 -5879 c21 -4 39 -10 39
-15 0 -4 -17 -27 -38 -51 -20 -24 -48 -57 -60 -73 -14 -17 -21 -22 -18 -12 3
10 6 52 6 94 0 65 2 74 16 69 9 -3 33 -9 55 -12z"/>
<path d="M8187 9373 c-2 -5 -78 -205 -167 -446 -95 -256 -159 -442 -154 -447
18 -18 1766 -662 1773 -654 19 21 333 886 325 894 -8 7 -1754 660 -1767 660
-3 0 -8 -3 -10 -7z m841 -472 c398 -148 726 -271 729 -275 3 -3 -32 -106 -77
-228 -148 -400 -140 -380 -164 -375 -26 6 -1446 534 -1453 540 -8 9 219 607
231 607 6 0 336 -121 734 -269z"/>
<path d="M7743 7144 c-33 -7 -99 -27 -144 -45 -96 -37 -90 -47 26 -48 l69 -1
-64 -67 -65 -67 80 75 c44 41 105 87 135 102 30 15 45 27 35 27 -15 0 -16 3
-7 12 13 13 16 29 5 27 -5 -1 -36 -7 -70 -15z"/>
<path d="M7848 7123 c6 -2 18 -2 25 0 6 3 1 5 -13 5 -14 0 -19 -2 -12 -5z"/>
<path d="M7993 7123 c9 -2 25 -2 35 0 9 3 1 5 -18 5 -19 0 -27 -2 -17 -5z"/>
<path d="M8165 7119 c-7 -10 21 -23 127 -60 37 -13 70 -20 74 -16 11 11 5 14
-99 51 -58 22 -99 31 -102 25z"/>
<path d="M7964 7048 l-29 -33 33 29 c30 28 37 36 29 36 -2 0 -16 -15 -33 -32z"/>
<path d="M7869 6943 l-34 -38 38 34 c34 33 42 41 34 41 -2 0 -19 -17 -38 -37z"/>
<path d="M8442 6858 l2 -113 3 108 c3 76 7 106 15 101 7 -4 8 -3 4 4 -19 32
-26 4 -24 -100z"/>
<path d="M8495 6930 c10 -11 20 -20 23 -20 3 0 -3 9 -13 20 -10 11 -20 20 -23
20 -3 0 3 -9 13 -20z"/>
<path d="M7534 6878 l-19 -23 23 19 c21 18 27 26 19 26 -2 0 -12 -10 -23 -22z"/>
<path d="M7789 6853 l-34 -38 38 34 c34 33 42 41 34 41 -2 0 -19 -17 -38 -37z"/>
<path d="M8657 6873 c-14 -14 -6 -88 14 -129 11 -24 36 -57 55 -73 35 -31 113
-76 120 -69 8 8 -56 126 -99 183 -53 70 -81 98 -90 88z"/>
<path d="M7568 6840 c-26 -17 -69 -63 -102 -110 -58 -80 -85 -109 -73 -77 9
24 0 21 -14 -4 -8 -17 -8 -20 1 -14 8 5 11 3 8 -6 -3 -8 -10 -13 -17 -12 -6 2
-18 -12 -26 -30 -14 -28 -14 -30 0 -13 8 11 15 25 15 30 0 6 4 5 9 -2 6 -10
16 -3 40 27 37 46 85 66 145 58 37 -5 39 -4 22 9 -23 16 -54 18 -90 4 -14 -5
-26 -7 -26 -4 0 16 44 58 63 60 12 1 38 5 58 9 22 4 45 3 58 -4 13 -7 21 -8
21 -2 0 30 -69 39 -114 16 -38 -20 -43 -19 -20 6 28 32 93 59 142 59 42 0 56
13 26 24 -36 14 -82 5 -126 -24z"/>
<path d="M8570 6856 c0 -2 8 -10 18 -17 15 -13 16 -12 3 4 -13 16 -21 21 -21
13z"/>
<path d="M7499 6833 c-13 -16 -12 -17 4 -4 9 7 17 15 17 17 0 8 -8 3 -21 -13z"/>
<path d="M7719 6773 c-13 -16 -12 -17 4 -4 9 7 17 15 17 17 0 8 -8 3 -21 -13z"/>
<path d="M8621 6785 c1 -19 18 -51 18 -35 0 8 -4 22 -9 30 -5 8 -9 11 -9 5z"/>
<path d="M7679 6723 c-13 -16 -12 -17 4 -4 9 7 17 15 17 17 0 8 -8 3 -21 -13z"/>
<path d="M8441 6724 c0 -11 3 -14 6 -6 3 7 2 16 -1 19 -3 4 -6 -2 -5 -13z"/>
<path d="M8642 6710 c0 -14 2 -19 5 -12 2 6 2 18 0 25 -3 6 -5 1 -5 -13z"/>
<path d="M7410 6700 c-6 -11 -8 -20 -6 -20 3 0 10 9 16 20 6 11 8 20 6 20 -3
0 -10 -9 -16 -20z"/>
<path d="M7639 6673 c-13 -16 -12 -17 4 -4 9 7 17 15 17 17 0 8 -8 3 -21 -13z"/>
<path d="M8653 6635 c0 -22 2 -30 4 -17 2 12 2 30 0 40 -3 9 -5 -1 -4 -23z"/>
<path d="M7579 6593 c-13 -16 -12 -17 4 -4 9 7 17 15 17 17 0 8 -8 3 -21 -13z"/>
<path d="M7549 6553 c-13 -16 -12 -17 4 -4 9 7 17 15 17 17 0 8 -8 3 -21 -13z"/>
<path d="M8500 6552 c0 -5 14 -21 31 -38 17 -16 37 -42 45 -57 18 -35 27 -138
14 -169 -5 -13 -9 -18 -9 -11 -2 25 -53 73 -79 73 -26 0 -26 -1 8 -18 52 -25
82 -85 74 -144 -3 -29 -2 -48 4 -48 6 0 13 61 17 145 8 163 -3 216 -52 255
-26 20 -53 26 -53 12z"/>
<path d="M7519 6513 c-13 -16 -12 -17 4 -4 9 7 17 15 17 17 0 8 -8 3 -21 -13z"/>
<path d="M8480 6455 c0 -2 13 -11 29 -20 16 -8 39 -31 51 -50 12 -20 24 -34
27 -32 9 10 -26 75 -48 91 -22 15 -59 22 -59 11z"/>
<path d="M7459 6433 c-13 -16 -12 -17 4 -4 9 7 17 15 17 17 0 8 -8 3 -21 -13z"/>
<path d="M8653 6385 c0 -22 2 -30 4 -17 2 12 2 30 0 40 -3 9 -5 -1 -4 -23z"/>
<path d="M7237 6375 c-24 -50 -20 -58 4 -12 11 22 19 41 17 43 -3 2 -12 -12
-21 -31z"/>
<path d="M8443 6355 c0 -33 2 -45 4 -27 2 18 2 45 0 60 -2 15 -4 0 -4 -33z"/>
<path d="M8642 6300 c0 -19 2 -27 5 -17 2 9 2 25 0 35 -3 9 -5 1 -5 -18z"/>
<path d="M7196 6285 c-9 -26 -7 -32 5 -12 6 10 9 21 6 23 -2 3 -7 -2 -11 -11z"/>
<path d="M8632 6235 c0 -16 2 -22 5 -12 2 9 2 23 0 30 -3 6 -5 -1 -5 -18z"/>
<path d="M7176 6234 c-3 -9 -4 -19 -2 -23 3 -4 -11 -15 -30 -26 -41 -22 -77
-67 -92 -115 -20 -61 -54 -292 -53 -358 1 -65 15 -105 47 -133 11 -9 264 -108
563 -219 621 -230 582 -222 667 -137 60 61 200 291 213 350 38 165 -156 387
-463 533 -298 141 -583 178 -825 108 -20 -6 -22 -4 -16 15 7 24 0 29 -9 5z"/>
<path d="M8433 6205 c0 -27 2 -38 4 -22 2 15 2 37 0 50 -2 12 -4 0 -4 -28z"/>
<path d="M8622 6180 c0 -14 2 -19 5 -12 2 6 2 18 0 25 -3 6 -5 1 -5 -13z"/>
<path d="M8612 6130 c0 -14 2 -19 5 -12 2 6 2 18 0 25 -3 6 -5 1 -5 -13z"/>
<path d="M8423 6085 c0 -27 2 -38 4 -22 2 15 2 37 0 50 -2 12 -4 0 -4 -28z"/>
<path d="M8602 6080 c0 -14 2 -19 5 -12 2 6 2 18 0 25 -3 6 -5 1 -5 -13z"/>
<path d="M8591 6034 c0 -11 3 -14 6 -6 3 7 2 16 -1 19 -3 4 -6 -2 -5 -13z"/>
<path d="M8581 5994 c0 -11 3 -14 6 -6 3 7 2 16 -1 19 -3 4 -6 -2 -5 -13z"/>
<path d="M8571 5954 c0 -11 3 -14 6 -6 3 7 2 16 -1 19 -3 4 -6 -2 -5 -13z"/>
<path d="M6726 5869 c-14 -11 -26 -31 -26 -43 0 -26 14 -31 123 -42 l64 -6 17
48 c9 26 16 51 16 56 0 4 -38 8 -84 8 -69 0 -88 -4 -110 -21z"/>
<path d="M8531 5824 c0 -11 3 -14 6 -6 3 7 2 16 -1 19 -3 4 -6 -2 -5 -13z"/>
<path d="M6933 5808 c-5 -7 -49 -128 -98 -268 -48 -140 -119 -331 -158 -425
-166 -407 -192 -523 -144 -629 14 -31 32 -56 40 -56 8 0 21 17 30 38 8 20 42
98 75 172 103 235 202 559 242 795 20 113 39 385 28 385 -3 0 -10 -6 -15 -12z"/>
<path d="M8320 5233 c-115 -128 -272 -396 -380 -647 -90 -211 -208 -572 -191
-589 17 -17 84 15 134 65 61 61 105 154 185 388 85 247 117 334 222 598 51
128 90 235 87 238 -2 3 -28 -21 -57 -53z"/>
<path d="M8460 5288 c0 -2 -9 -27 -20 -56 l-20 -52 76 -50 c42 -28 80 -50 84
-50 14 0 31 56 23 76 -11 27 -143 148 -143 132z"/>
<path d="M6438 4298 c-9 -7 -24 -42 -33 -77 -17 -65 -13 -82 19 -87 7 -1 27
-5 43 -8 l29 -7 25 91 25 90 -32 0 c-18 0 -38 2 -46 5 -7 3 -21 0 -30 -7z"/>
<path d="M6579 4272 c-26 -23 -35 -45 -61 -147 -20 -83 -30 -148 -31 -210 -2
-83 0 -94 28 -144 41 -74 149 -178 237 -228 150 -86 366 -135 497 -114 77 13
145 44 170 79 57 82 191 334 191 361 0 43 -16 78 -44 96 -49 32 -879 335 -918
335 -27 0 -46 -8 -69 -28z"/>
<path d="M7613 3793 c-40 -87 -40 -88 -20 -105 11 -10 24 -15 28 -12 5 3 9 1
9 -3 0 -5 9 -14 19 -20 18 -11 23 -5 61 74 l41 87 -38 33 c-21 18 -43 32 -49
33 -5 0 -28 -39 -51 -87z"/>
<path d="M2888 3671 c-360 -115 -477 -567 -218 -839 160 -167 408 -208 612
-100 246 131 340 437 212 690 -31 62 -130 168 -188 202 -111 65 -296 86 -418
47z m244 -32 c204 -44 350 -206 374 -417 20 -180 -93 -376 -265 -459 -64 -31
-87 -37 -168 -41 -115 -6 -198 14 -281 67 -251 162 -291 509 -84 718 117 118
268 165 424 132z"/>
<path d="M3120 3180 c-146 -71 -268 -129 -272 -129 -4 -1 -28 40 -53 89 -42
83 -64 106 -80 81 -10 -17 98 -221 117 -221 9 0 145 63 302 139 194 95 286
145 286 155 0 9 -8 16 -17 15 -10 0 -137 -59 -283 -129z"/>
<path d="M6386 3358 c-2 -7 -39 -109 -82 -226 -45 -124 -73 -216 -68 -221 16
-14 396 -152 402 -146 4 3 14 26 23 51 20 53 33 43 -136 104 -66 24 -121 44
-123 45 -1 1 12 41 29 88 l31 86 77 -29 c42 -15 89 -33 105 -39 34 -14 37 -11
60 47 16 42 16 43 -6 51 -13 4 -62 23 -110 41 l-87 32 15 29 14 29 -70 35
c-50 25 -72 32 -74 23z"/>
<path d="M6913 3043 c4 -54 7 -164 7 -245 l0 -147 57 -21 c31 -11 61 -20 67
-18 6 2 63 59 125 128 63 69 146 158 185 198 39 39 68 72 66 72 -3 1 -41 7
-85 15 l-80 14 -21 -27 c-12 -15 -56 -67 -98 -116 -42 -49 -76 -93 -76 -97 0
-5 -3 -9 -7 -9 -5 0 -7 69 -5 154 l3 154 -62 21 c-35 12 -67 21 -72 21 -6 0
-8 -38 -4 -97z"/>
<path d="M6280 2509 c-30 -5 -92 -27 -136 -49 -140 -69 -229 -179 -269 -335
-63 -249 80 -516 323 -600 141 -48 272 -41 401 22 175 87 281 258 281 455 0
248 -165 452 -407 503 -75 16 -112 17 -193 4z m206 -53 c181 -48 315 -198 345
-384 38 -235 -121 -466 -359 -522 -73 -17 -193 -8 -265 20 -374 143 -403 669
-47 850 96 49 224 63 326 36z"/>
<path d="M6230 2293 c0 -10 25 -74 55 -142 30 -68 55 -127 55 -132 0 -4 -61
-36 -136 -73 -107 -52 -135 -69 -132 -83 5 -24 11 -22 161 49 70 34 129 59
130 57 2 -2 27 -60 57 -129 60 -140 68 -153 90 -140 12 7 3 33 -48 151 -34 78
-61 143 -60 144 2 1 65 32 141 68 75 36 137 71 137 77 0 27 -39 17 -160 -41
-78 -37 -134 -59 -139 -53 -4 5 -32 66 -62 136 -40 94 -59 128 -71 128 -11 0
-18 -7 -18 -17z"/>
</g>
</svg>
