<svg xmlns="http://www.w3.org/2000/svg" viewBox="0 0 750 500"><g id="freepik--background-complete--inject-7"><path d="M566.47,123.21c7.19,0,128.17.8,135.77.56.55,0,.84-.82.3-1.09-4.8-2.37-10.23-1.9-15.21-3.58-2.93-1-4.73-2.9-6.77-5.1a14,14,0,0,0-6.29-4.11,13.31,13.31,0,0,0-6.86-.21c-2.45.58-4.58,2-6.93,2.88-5.81,2.19-11.45.1-15.6-4.2-3.43-3.54-6.79-6.89-11.44-8.79a15.17,15.17,0,0,0-12.12-.17c-4.44,2-7.49,6-11.65,8.48-4.95,2.89-10.85,2.21-16.31,3.08s-9.65,5.47-14.44,8.11a10.11,10.11,0,0,1-5.21,1.62c-1.07,0-2.12-.32-3.18-.45-1.65-.2-3.21-.16-4.32,1.22C565.94,121.79,566,123.21,566.47,123.21Z" style="fill:#ebebeb"></path><path d="M52.78,82.52c5.25,0,93.57.58,99.13.4.39,0,.61-.6.21-.8-3.5-1.73-7.47-1.38-11.1-2.61-2.14-.72-3.46-2.12-4.94-3.72a10.2,10.2,0,0,0-4.6-3,9.75,9.75,0,0,0-5-.16c-1.79.43-3.35,1.46-5.06,2.1-4.24,1.6-8.37.08-11.4-3.06-2.49-2.58-5-5-8.35-6.42a11.08,11.08,0,0,0-8.85-.12c-3.24,1.46-5.46,4.42-8.5,6.19-3.61,2.11-7.92,1.61-11.91,2.25s-7,4-10.54,5.92a7.39,7.39,0,0,1-3.81,1.18,23.13,23.13,0,0,1-2.32-.33c-1.2-.14-2.34-.11-3.15.89C52.39,81.48,52.43,82.52,52.78,82.52Z" style="fill:#ebebeb"></path><path d="M363.31,144.66c5.25,0,93.58.59,99.13.41.4,0,.61-.6.22-.8-3.5-1.73-7.47-1.38-11.11-2.61-2.14-.72-3.45-2.12-4.94-3.72a10.17,10.17,0,0,0-4.59-3,9.68,9.68,0,0,0-5-.16c-1.79.43-3.34,1.46-5.05,2.1-4.25,1.6-8.37.08-11.4-3.06-2.5-2.59-5-5-8.35-6.42a11.08,11.08,0,0,0-8.85-.12c-3.24,1.46-5.46,4.42-8.51,6.19-3.6,2.11-7.92,1.61-11.9,2.25s-7.05,4-10.54,5.92a7.42,7.42,0,0,1-3.81,1.18,22.72,22.72,0,0,1-2.32-.33c-1.2-.14-2.34-.11-3.15.89C362.93,143.63,363,144.66,363.31,144.66Z" style="fill:#ebebeb"></path><path d="M131.19,187.34c5.25,0,93.58.58,99.13.4.4,0,.61-.6.21-.79-3.5-1.73-7.47-1.39-11.1-2.61-2.14-.72-3.46-2.12-4.94-3.73a10.28,10.28,0,0,0-4.6-3,9.74,9.74,0,0,0-5-.15c-1.79.42-3.35,1.45-5.06,2.1-4.24,1.6-8.37.08-11.4-3.06-2.49-2.59-5-5-8.35-6.43a11.08,11.08,0,0,0-8.85-.12c-3.24,1.47-5.46,4.42-8.5,6.19-3.61,2.11-7.92,1.61-11.91,2.25s-7,4-10.54,5.92a7.3,7.3,0,0,1-3.81,1.18c-.78,0-1.54-.23-2.32-.32-1.2-.15-2.34-.12-3.15.89C130.8,186.3,130.84,187.34,131.19,187.34Z" style="fill:#ebebeb"></path><path d="M239.83,109c.1.29,139.21,0,137.46,0-.8,0,1.21-1.2.43-1.58-4.53-2.25-9.48-2.31-14.42-2.77a22.26,22.26,0,0,1-8.42-2c-2.62-1.37-4.25-3.76-6.11-6a26.16,26.16,0,0,0-23.76-9c-9.89,1.55-17.69,9.09-27.6,10.47-6,.84-11.58-1.47-17.4-2.28A21.32,21.32,0,0,0,267,98.2c-3.14,1.55-6,2.86-9.58,3.11-2.73.19-5.46-.12-8.19-.15A18.3,18.3,0,0,0,237.13,106C236.69,106.37,235.28,109,239.83,109Z" style="fill:#ebebeb"></path><polygon points="655.68 204.39 651.06 387.89 664.63 387.89 660.01 204.39 655.68 204.39" style="fill:#dbdbdb"></polygon><polygon points="655.68 204.39 651.06 387.89 664.63 387.89 660.01 204.39 655.68 204.39" style="fill:#fff;opacity:0.5"></polygon><polygon points="655.57 207.83 660.14 208.31 660.01 204.39 655.68 204.39 655.57 207.83" style="fill:#dbdbdb"></polygon><polygon points="652.57 303.54 663.12 303.54 662.95 298.12 652.74 298.12 652.57 303.54" style="fill:#dbdbdb"></polygon><polygon points="652.81 295.55 662.88 295.55 662.79 292.85 652.9 292.85 652.81 295.55" style="fill:#dbdbdb"></polygon><polygon points="657.85 387.89 657.85 204.39 655.68 204.39 651.06 387.89 657.85 387.89" style="fill:#fff;opacity:0.5"></polygon><polygon points="670 202.58 668.84 206.9 653.68 206.9 653.68 198.27 668.84 198.27 669.39 200.34 670 202.58" style="fill:#dbdbdb"></polygon><polygon points="670 202.58 668.84 206.9 653.68 206.9 653.68 198.27 668.84 198.27 669.39 200.34 670 202.58" style="fill:#fff;opacity:0.30000000000000004"></polygon><polygon points="670 202.58 653.68 202.58 653.68 200.34 669.39 200.34 670 202.58" style="fill:#fff;opacity:0.5"></polygon><polygon points="648.7 201.85 600.58 155.77 601.98 155.01 651.32 199.11 648.7 201.85" style="fill:#dbdbdb"></polygon><polygon points="648.7 201.85 600.58 155.77 601.98 155.01 651.32 199.11 648.7 201.85" style="fill:#fff;opacity:0.5"></polygon><polygon points="643.26 196.65 600.58 155.77 600.48 157.32 639 198.46 643.26 196.65" style="fill:#dbdbdb"></polygon><polygon points="643.26 196.65 600.58 155.77 600.48 157.32 639 198.46 643.26 196.65" style="fill:#fff;opacity:0"></polygon><polygon points="613.48 171.2 616.53 168.02 615.04 166.69 612.12 169.75 613.48 171.2" style="fill:#dbdbdb"></polygon><polygon points="654.9 199.53 716.78 183.06 716.81 184.68 656.09 203.29 654.9 199.53" style="fill:#dbdbdb"></polygon><polygon points="654.9 199.53 716.78 183.06 716.81 184.68 656.09 203.29 654.9 199.53" style="fill:#fff;opacity:0.5"></polygon><polygon points="661.88 197.67 716.78 183.06 715.48 182.13 662.24 192.99 661.88 197.67" style="fill:#dbdbdb"></polygon><polygon points="661.88 197.67 716.78 183.06 715.48 182.13 662.24 192.99 661.88 197.67" style="fill:#fff;opacity:0"></polygon><polygon points="697.52 185.79 698.9 190.17 700.73 189.6 699.4 185.41 697.52 185.79" style="fill:#dbdbdb"></polygon><polygon points="654.1 206.16 640.33 268.7 638.91 267.84 650.29 205.13 654.1 206.16" style="fill:#dbdbdb"></polygon><polygon points="654.1 206.16 640.33 268.7 638.91 267.84 650.29 205.13 654.1 206.16" style="fill:#fff;opacity:0.5"></polygon><polygon points="652.54 213.22 640.33 268.7 641.73 268.08 656.45 216.08 652.54 213.22" style="fill:#dbdbdb"></polygon><polygon points="652.54 213.22 640.33 268.7 641.73 268.08 656.45 216.08 652.54 213.22" style="fill:#fff;opacity:0"></polygon><polygon points="646.7 250.53 642.27 249.34 641.92 251.23 646.18 252.38 646.7 250.53" style="fill:#dbdbdb"></polygon><circle cx="653.15" cy="202.58" r="4.31" style="fill:#dbdbdb"></circle><path d="M656.4,202.58a3.64,3.64,0,0,1-3.64,3.65c-2,0-6.23-2.61-6.23-3.65s4.21-3.64,6.23-3.64A3.64,3.64,0,0,1,656.4,202.58Z" style="fill:#dbdbdb"></path><path d="M656.4,202.58a3.64,3.64,0,0,1-3.64,3.65c-2,0-6.23-2.61-6.23-3.65s4.21-3.64,6.23-3.64A3.64,3.64,0,0,1,656.4,202.58Z" style="fill:#fff;opacity:0.5"></path><path d="M660.48,209.06a10.6,10.6,0,0,0,2.13-5.28,10.48,10.48,0,0,0-4.7-9.84,10.83,10.83,0,0,0-5.45-1.67,11.24,11.24,0,0,1,2.88.35A10.2,10.2,0,0,1,658,193.8a10.35,10.35,0,0,1,3.87,4.29,10.58,10.58,0,0,1,.91,5.71A9.92,9.92,0,0,1,660.48,209.06Z" style="fill:#c7c7c7"></path><path d="M642.15,202.58a10.76,10.76,0,0,0,1.7,5.52,10.47,10.47,0,0,0,10,4.61,10.62,10.62,0,0,0,5.29-2.31,10,10,0,0,1-5.27,2.48,10.52,10.52,0,0,1-5.8-.82,10.35,10.35,0,0,1-4.39-3.87,10.18,10.18,0,0,1-1.21-2.69A11.07,11.07,0,0,1,642.15,202.58Z" style="fill:#c7c7c7"></path><path d="M650.52,192.45a12,12,0,0,0-4.13,2,10.74,10.74,0,0,0-1.69,1.54,19.23,19.23,0,0,0-1.37,1.85,11.75,11.75,0,0,1,1.22-2,9.6,9.6,0,0,1,1.69-1.62A9.37,9.37,0,0,1,650.52,192.45Z" style="fill:#c7c7c7"></path><path d="M639.59,207.75a14.34,14.34,0,0,0,4.65,5.88,14,14,0,0,0,14.32,1.31,14.63,14.63,0,0,0,5.63-5,13.71,13.71,0,0,1-5.55,5.1,13.7,13.7,0,0,1-14.5-1.31A13.67,13.67,0,0,1,639.59,207.75Z" style="fill:#c7c7c7"></path><path d="M643.64,191.89a15.38,15.38,0,0,0-3.61,4.83,15.17,15.17,0,0,0-1.43,5.86,12.56,12.56,0,0,1,1.21-6A12.69,12.69,0,0,1,643.64,191.89Z" style="fill:#c7c7c7"></path><path d="M665.82,206.29A14.56,14.56,0,0,0,666,200a13.64,13.64,0,0,0-2.6-5.71,13.82,13.82,0,0,0-4.81-4,14.74,14.74,0,0,0-6.12-1.52,15.35,15.35,0,0,1,3.17.31A13.69,13.69,0,0,1,666.15,200,13.42,13.42,0,0,1,665.82,206.29Z" style="fill:#c7c7c7"></path><path d="M660.22,193.75a11.9,11.9,0,0,0-10.6-2.5,11.73,11.73,0,0,0-6.76,18,11.84,11.84,0,0,0,9.6,5.12,11.7,11.7,0,0,1-9.74-5,11.78,11.78,0,0,1,6.86-18.23,12,12,0,0,1,5.66,0A11.81,11.81,0,0,1,660.22,193.75Z" style="fill:#c7c7c7"></path><path d="M656.6,213.59a13.15,13.15,0,0,0,3.92-2.56,11.72,11.72,0,0,0,2.63-3.86,12,12,0,0,0,.14-9.16,11.06,11.06,0,0,1,1,4.61,11.8,11.8,0,0,1-.92,4.65,11.75,11.75,0,0,1-4.63,5.32A16.09,16.09,0,0,1,656.6,213.59Z" style="fill:#c7c7c7"></path><polygon points="514.71 186.8 509.65 387.89 524.52 387.89 519.46 186.8 514.71 186.8" style="fill:#dbdbdb"></polygon><polygon points="514.71 186.8 509.65 387.89 524.52 387.89 519.46 186.8 514.71 186.8" style="fill:#fff;opacity:0.5"></polygon><polygon points="514.59 190.57 519.59 191.1 519.46 186.79 514.71 186.79 514.59 190.57" style="fill:#dbdbdb"></polygon><polygon points="511.3 295.45 522.87 295.45 522.68 289.51 511.48 289.51 511.3 295.45" style="fill:#dbdbdb"></polygon><polygon points="511.57 286.7 522.59 286.7 522.5 283.73 511.66 283.73 511.57 286.7" style="fill:#dbdbdb"></polygon><polygon points="517.09 387.89 517.09 186.8 514.71 186.8 509.65 387.89 517.09 387.89" style="fill:#fff;opacity:0.5"></polygon><polygon points="530.4 184.82 529.13 189.54 512.51 189.54 512.51 180.09 529.13 180.09 529.74 182.36 530.4 184.82" style="fill:#dbdbdb"></polygon><polygon points="530.4 184.82 529.13 189.54 512.51 189.54 512.51 180.09 529.13 180.09 529.74 182.36 530.4 184.82" style="fill:#fff;opacity:0.30000000000000004"></polygon><polygon points="530.4 184.82 512.51 184.82 512.51 182.36 529.74 182.36 530.4 184.82" style="fill:#fff;opacity:0.5"></polygon><polygon points="509.78 180.92 526.48 109.86 527.97 110.75 513.83 181.87 509.78 180.92" style="fill:#dbdbdb"></polygon><polygon points="509.78 180.92 526.48 109.86 527.97 110.75 513.83 181.87 509.78 180.92" style="fill:#fff;opacity:0.5"></polygon><polygon points="511.67 172.9 526.48 109.86 524.96 110.62 507.58 169.89 511.67 172.9" style="fill:#dbdbdb"></polygon><polygon points="511.67 172.9 526.48 109.86 524.96 110.62 507.58 169.89 511.67 172.9" style="fill:#fff;opacity:0"></polygon><polygon points="519.1 130.62 523.8 131.73 524.22 129.58 519.71 128.52 519.1 130.62" style="fill:#dbdbdb"></polygon><polygon points="515.43 185.48 565.43 234.73 563.91 235.65 512.54 188.7 515.43 185.48" style="fill:#dbdbdb"></polygon><polygon points="515.43 185.48 565.43 234.73 563.91 235.65 512.54 188.7 515.43 185.48" style="fill:#fff;opacity:0.5"></polygon><polygon points="521.07 191.04 565.43 234.73 565.59 232.98 525.69 188.77 521.07 191.04" style="fill:#dbdbdb"></polygon><polygon points="521.07 191.04 565.43 234.73 565.59 232.98 525.69 188.77 521.07 191.04" style="fill:#fff;opacity:0"></polygon><polygon points="552.12 218.06 548.76 221.8 550.31 223.22 553.54 219.63 552.12 218.06" style="fill:#dbdbdb"></polygon><polygon points="508.72 188.43 442.02 210.25 442.05 208.43 507.57 184.26 508.72 188.43" style="fill:#dbdbdb"></polygon><polygon points="508.72 188.43 442.02 210.25 442.05 208.43 507.57 184.26 508.72 188.43" style="fill:#fff;opacity:0.5"></polygon><polygon points="501.19 190.89 442.02 210.25 443.39 211.23 500.67 196.17 501.19 190.89" style="fill:#dbdbdb"></polygon><polygon points="501.19 190.89 442.02 210.25 443.39 211.23 500.67 196.17 501.19 190.89" style="fill:#fff;opacity:0"></polygon><polygon points="462.72 206.15 461.38 201.3 459.4 202.03 460.69 206.68 462.72 206.15" style="fill:#dbdbdb"></polygon><path d="M507.21,184.82a4.73,4.73,0,1,0,4.72-4.73A4.72,4.72,0,0,0,507.21,184.82Z" style="fill:#dbdbdb"></path><path d="M515.5,184.82a4,4,0,0,1-4,4c-2.21,0-6.82-2.85-6.82-4s4.61-4,6.82-4A4,4,0,0,1,515.5,184.82Z" style="fill:#dbdbdb"></path><path d="M515.5,184.82a4,4,0,0,1-4,4c-2.21,0-6.82-2.85-6.82-4s4.61-4,6.82-4A4,4,0,0,1,515.5,184.82Z" style="fill:#fff;opacity:0.5"></path><path d="M520,191.92a11.67,11.67,0,0,0,2.35-5.79,11.21,11.21,0,0,0-1.07-6.12,11.09,11.09,0,0,0-4.1-4.67,11.75,11.75,0,0,0-6-1.82,12,12,0,0,1,3.15.39,10.69,10.69,0,0,1,2.91,1.29,11.32,11.32,0,0,1,4.24,4.7,11.49,11.49,0,0,1,1,6.25A10.91,10.91,0,0,1,520,191.92Z" style="fill:#c7c7c7"></path><path d="M499.88,184.82a11.85,11.85,0,0,0,1.86,6.05,11.24,11.24,0,0,0,4.78,4.1,11.4,11.4,0,0,0,6.23,1,11.66,11.66,0,0,0,5.8-2.55,11,11,0,0,1-5.78,2.71A11.18,11.18,0,0,1,501.6,191a11.34,11.34,0,0,1-1.32-3A12.29,12.29,0,0,1,499.88,184.82Z" style="fill:#c7c7c7"></path><path d="M509.05,173.72a12.81,12.81,0,0,0-4.53,2.12,11.86,11.86,0,0,0-1.85,1.69,20.2,20.2,0,0,0-1.5,2,13.45,13.45,0,0,1,1.35-2.16,11.08,11.08,0,0,1,1.85-1.77A10.26,10.26,0,0,1,509.05,173.72Z" style="fill:#c7c7c7"></path><path d="M497.08,190.48a15.56,15.56,0,0,0,5.09,6.45,15.32,15.32,0,0,0,15.7,1.43,15.76,15.76,0,0,0,6.16-5.44,15,15,0,0,1-6.08,5.59,15,15,0,0,1-15.88-1.44A14.89,14.89,0,0,1,497.08,190.48Z" style="fill:#c7c7c7"></path><path d="M501.51,173.1A16.46,16.46,0,0,0,496,184.82a14,14,0,0,1,5.52-11.72Z" style="fill:#c7c7c7"></path><path d="M525.82,188.89A16,16,0,0,0,526,182a15.54,15.54,0,0,0-8.13-10.68,15.9,15.9,0,0,0-6.71-1.66,17,17,0,0,1,3.48.34,14.9,14.9,0,0,1,3.3,1.17,15,15,0,0,1,8.22,10.8A14.85,14.85,0,0,1,525.82,188.89Z" style="fill:#c7c7c7"></path><path d="M519.68,175.13a13.05,13.05,0,0,0-11.61-2.74,12.86,12.86,0,0,0-7.42,19.71,13,13,0,0,0,10.53,5.61,12.8,12.8,0,0,1-10.66-5.52,12.91,12.91,0,0,1,7.51-20,12.78,12.78,0,0,1,11.65,2.9Z" style="fill:#c7c7c7"></path><path d="M515.71,196.88a14,14,0,0,0,4.31-2.8,12.77,12.77,0,0,0,2.88-4.23,13.11,13.11,0,0,0,.15-10,12.22,12.22,0,0,1,1.1,5.06,12.72,12.72,0,0,1-1,5.09,12.94,12.94,0,0,1-3,4.25,12.65,12.65,0,0,1-2.06,1.58A18.73,18.73,0,0,1,515.71,196.88Z" style="fill:#c7c7c7"></path><polygon points="360.34 204.39 355.72 387.89 369.29 387.89 364.67 204.39 360.34 204.39" style="fill:#dbdbdb"></polygon><polygon points="360.34 204.39 355.72 387.89 369.29 387.89 364.67 204.39 360.34 204.39" style="fill:#fff;opacity:0.5"></polygon><polygon points="360.21 208.5 364.98 214.16 364.67 204.39 360.34 204.39 360.21 208.5" style="fill:#dbdbdb"></polygon><polygon points="357.23 303.54 367.78 303.54 367.62 298.12 357.4 298.12 357.23 303.54" style="fill:#dbdbdb"></polygon><polygon points="357.48 295.55 367.54 295.55 367.45 292.85 357.56 292.85 357.48 295.55" style="fill:#dbdbdb"></polygon><polygon points="360.34 204.39 355.72 387.89 362.59 387.89 362.5 204.39 360.34 204.39" style="fill:#fff;opacity:0.5"></polygon><polygon points="374.66 202.58 373.5 206.9 358.34 206.9 358.34 198.27 373.5 198.27 374.06 200.34 374.66 202.58" style="fill:#dbdbdb"></polygon><polygon points="374.66 202.58 373.5 206.9 358.34 206.9 358.34 198.27 373.5 198.27 374.06 200.34 374.66 202.58" style="fill:#fff;opacity:0.30000000000000004"></polygon><polygon points="374.66 202.58 358.34 202.58 358.34 200.34 374.06 200.34 374.66 202.58" style="fill:#fff;opacity:0.5"></polygon><polygon points="361.67 205.6 378.63 270.02 377.05 269.94 358 206.56 361.67 205.6" style="fill:#dbdbdb"></polygon><polygon points="361.67 205.6 378.63 270.02 377.05 269.94 358 206.56 361.67 205.6" style="fill:#fff;opacity:0.5"></polygon><polygon points="363.58 212.87 378.63 270.02 379.53 268.75 368.17 213.55 363.58 212.87" style="fill:#dbdbdb"></polygon><polygon points="363.58 212.87 378.63 270.02 379.53 268.75 368.17 213.55 363.58 212.87" style="fill:#fff;opacity:0"></polygon><polygon points="375.69 250.12 371.43 251.25 372.01 253.16 376.1 252.08 375.69 250.12" style="fill:#dbdbdb"></polygon><polygon points="355.17 204.34 293.79 186.06 294.62 184.67 356.12 200.51 355.17 204.34" style="fill:#dbdbdb"></polygon><polygon points="355.17 204.34 293.79 186.06 294.62 184.67 356.12 200.51 355.17 204.34" style="fill:#fff;opacity:0.5"></polygon><polygon points="348.24 202.28 293.79 186.06 294.41 187.54 345.49 206.08 348.24 202.28" style="fill:#dbdbdb"></polygon><polygon points="348.24 202.28 293.79 186.06 294.41 187.54 345.49 206.08 348.24 202.28" style="fill:#fff;opacity:0"></polygon><polygon points="311.65 193.79 312.75 189.34 310.9 188.87 309.84 193.14 311.65 193.79" style="fill:#dbdbdb"></polygon><polygon points="359.31 199.1 403.72 152.96 404.48 154.44 362.02 201.97 359.31 199.1" style="fill:#dbdbdb"></polygon><polygon points="359.31 199.1 403.72 152.96 404.48 154.44 362.02 201.97 359.31 199.1" style="fill:#fff;opacity:0.5"></polygon><polygon points="364.32 193.89 403.72 152.96 402.2 152.75 362.49 189.41 364.32 193.89" style="fill:#dbdbdb"></polygon><polygon points="364.32 193.89 403.72 152.96 402.2 152.75 362.49 189.41 364.32 193.89" style="fill:#fff;opacity:0"></polygon><polygon points="388.8 165.12 391.95 168.45 393.23 167.02 390.2 163.82 388.8 165.12" style="fill:#dbdbdb"></polygon><circle cx="357.81" cy="202.58" r="4.31" style="fill:#dbdbdb"></circle><path d="M361.06,202.58a3.64,3.64,0,0,1-3.64,3.65c-2,0-6.22-2.61-6.22-3.65s4.21-3.64,6.22-3.64A3.64,3.64,0,0,1,361.06,202.58Z" style="fill:#dbdbdb"></path><path d="M361.06,202.58a3.64,3.64,0,0,1-3.64,3.65c-2,0-6.22-2.61-6.22-3.65s4.21-3.64,6.22-3.64A3.64,3.64,0,0,1,361.06,202.58Z" style="fill:#fff;opacity:0.5"></path><path d="M357.32,192.28a10.63,10.63,0,0,0-5.51,1.46,10.48,10.48,0,0,0-5.05,9.67,10.79,10.79,0,0,0,1.93,5.36,11,11,0,0,1-1.44-2.52,9.89,9.89,0,0,1-.66-2.83,10.21,10.21,0,0,1,5.13-9.82A9.93,9.93,0,0,1,357.32,192.28Z" style="fill:#c7c7c7"></path><path d="M363.13,210.83a10.73,10.73,0,0,0,3.39-4.67,10.5,10.5,0,0,0-2.33-10.8,10.73,10.73,0,0,0-5-2.85,10,10,0,0,1,5.15,2.74,10.17,10.17,0,0,1,2.36,11,10.12,10.12,0,0,1-1.43,2.57A11,11,0,0,1,363.13,210.83Z" style="fill:#c7c7c7"></path><path d="M350,210.21a11.55,11.55,0,0,0,4,2.13,10,10,0,0,0,2.24.43,19.61,19.61,0,0,0,2.3,0,12.72,12.72,0,0,1-2.31.2,9.47,9.47,0,0,1-2.3-.39A9.26,9.26,0,0,1,350,210.21Z" style="fill:#c7c7c7"></path><path d="M368.8,209.78a14.32,14.32,0,0,0,1.91-7.25,14,14,0,0,0-7.54-12.24,14.55,14.55,0,0,0-7.34-1.53,13.69,13.69,0,0,1,7.41,1.38,13.72,13.72,0,0,1,7.64,12.39A13.62,13.62,0,0,1,368.8,209.78Z" style="fill:#c7c7c7"></path><path d="M353.67,216.05a15.17,15.17,0,0,0,11.59-2.37,12.91,12.91,0,0,1-5.5,2.61A12.67,12.67,0,0,1,353.67,216.05Z" style="fill:#c7c7c7"></path><path d="M351.9,189.67a14.52,14.52,0,0,0-5.15,3.64,14.2,14.2,0,0,0-3.35,11.78,14.71,14.71,0,0,0,2.45,5.81,15.54,15.54,0,0,1-1.66-2.73,14.19,14.19,0,0,1-.95-3,13.61,13.61,0,0,1,3.39-11.92A13.44,13.44,0,0,1,351.9,189.67Z" style="fill:#c7c7c7"></path><path d="M345.22,201.67a11.85,11.85,0,0,0,4.36,10A11.71,11.71,0,0,0,368,206.28a11.84,11.84,0,0,0-1.66-10.75,11.69,11.69,0,0,1,1.82,10.8,11.81,11.81,0,0,1-22.09.92A11.73,11.73,0,0,1,345.22,201.67Z" style="fill:#c7c7c7"></path><path d="M363.27,192.67a13,13,0,0,0-4.41-1.6,11.57,11.57,0,0,0-4.65.2,12,12,0,0,0-7.43,5.39,11.16,11.16,0,0,1,3.09-3.57,11.64,11.64,0,0,1,4.28-2.06,12,12,0,0,1,4.74-.13,12.2,12.2,0,0,1,2.29.65A15,15,0,0,1,363.27,192.67Z" style="fill:#c7c7c7"></path><path d="M527.31,387.89s-128.68-7.16-198.62-24.79C270.63,348.46,217.63,320,191.59,320,134.81,320,32,387.89,32,387.89H406.65" style="fill:#dbdbdb"></path><path d="M717.67,387.89S602.43,347.7,568.52,347.7c-25.14,0-219.43,40.19-219.43,40.19Z" style="fill:#ebebeb"></path></g><g id="freepik--Trees--inject-7"><path d="M197.07,259.75s-17.27-6.83-30.94,17c-14,24.45,3.61,40.53,17.57,30.93,0,0,11,23,32.88,17.49s25.45-23,25.45-23,19.45,1.35,20-13.16-13.72-27.38-13.72-27.38-.87-36.15-24.42-35.85S197.07,259.75,197.07,259.75Z" style="fill:#455a64"></path><polygon points="213.23 387.85 218.04 280.27 223.09 387.84 213.23 387.85" style="fill:#263238"></polygon><polygon points="216.62 320.7 201.47 290.54 219.1 315.99 216.62 320.7" style="fill:#263238"></polygon><path d="M659.05,250.35S622,332.67,682.49,332.73s21.38-85.13,21.38-85.13,14-6.15-2.18-52.11-23.46-46-30.2-46c-8.53,0-16.49,19.87-10.7,50.41C660.79,199.93,639.46,238,659.05,250.35Z" style="fill:#37474f"></path><polygon points="687.8 387.36 682.1 263.29 676.13 387.35 687.8 387.36" style="fill:#263238"></polygon><polygon points="684.42 315.31 662.46 289.6 679.67 318.7 684.42 315.31" style="fill:#263238"></polygon><path d="M282.34,272.43s31.09,69.05-19.67,69.11-17.94-71.42-17.94-71.42S233,265,246.57,226.4s19.68-38.56,25.34-38.57c7.15,0,13.83,16.68,9,42.3C280.88,230.13,298.78,262.07,282.34,272.43Z" style="fill:#37474f"></path><polygon points="258.22 387.37 263 283.28 268.01 387.35 258.22 387.37" style="fill:#263238"></polygon><polygon points="261.06 326.92 279.48 305.35 265.04 329.76 261.06 326.92" style="fill:#263238"></polygon><path d="M127.7,267.83S95.39,340,148.4,340,167,265.34,167,265.34s12.26-5.42-2-45.64-20.64-40.22-26.55-40.21c-7.47,0-14.4,17.44-9.27,44.17C129.13,223.66,110.52,257.06,127.7,267.83Z" style="fill:#37474f"></path><polygon points="153.15 387.79 147.92 279.12 142.93 387.8 153.15 387.79" style="fill:#263238"></polygon><polygon points="150.05 324.68 130.76 302.2 145.9 327.66 150.05 324.68" style="fill:#263238"></polygon><path d="M596.25,259.31s-17.27-6.83-30.93,17c-14,24.45,3.6,40.53,17.56,30.93,0,0,11,23,32.89,17.49s25.44-23,25.44-23,19.45,1.34,20-13.17-13.72-27.38-13.72-27.38-.86-36.15-24.42-35.85S596.25,259.31,596.25,259.31Z" style="fill:#455a64"></path><polygon points="612.41 387.42 617.22 279.83 622.27 387.4 612.41 387.42" style="fill:#263238"></polygon><polygon points="615.74 320.14 600.65 290.1 618.72 315.5 615.74 320.14" style="fill:#263238"></polygon></g><g id="freepik--Floor--inject-7"><rect x="33.68" y="443.37" width="682.63" height="7.27" style="fill:#c7c7c7"></rect><path d="M81.54,443.37a7.86,7.86,0,0,1,.81,3.64,7.73,7.73,0,0,1-.81,3.63,7.73,7.73,0,0,1-.81-3.63A7.86,7.86,0,0,1,81.54,443.37Z" style="fill:#263238"></path><path d="M134.9,443.37a8.56,8.56,0,0,1,0,7.27,7.61,7.61,0,0,1-.81-3.63A7.74,7.74,0,0,1,134.9,443.37Z" style="fill:#263238"></path><path d="M188.25,443.37a7.74,7.74,0,0,1,.81,3.64,7.61,7.61,0,0,1-.81,3.63,8.56,8.56,0,0,1,0-7.27Z" style="fill:#263238"></path><path d="M241.61,443.37a7.86,7.86,0,0,1,.81,3.64,7.73,7.73,0,0,1-.81,3.63,7.73,7.73,0,0,1-.81-3.63A7.86,7.86,0,0,1,241.61,443.37Z" style="fill:#263238"></path><path d="M295,443.37a8.56,8.56,0,0,1,0,7.27,7.74,7.74,0,0,1-.82-3.63A7.88,7.88,0,0,1,295,443.37Z" style="fill:#263238"></path><path d="M348.32,443.37a7.74,7.74,0,0,1,.81,3.64,7.61,7.61,0,0,1-.81,3.63,7.73,7.73,0,0,1-.81-3.63A7.86,7.86,0,0,1,348.32,443.37Z" style="fill:#263238"></path><path d="M401.68,443.37a7.86,7.86,0,0,1,.81,3.64,7.73,7.73,0,0,1-.81,3.63,7.61,7.61,0,0,1-.81-3.63A7.74,7.74,0,0,1,401.68,443.37Z" style="fill:#263238"></path><path d="M455,443.37a7.88,7.88,0,0,1,.82,3.64,7.74,7.74,0,0,1-.82,3.63,8.56,8.56,0,0,1,0-7.27Z" style="fill:#263238"></path><path d="M508.39,443.37a7.86,7.86,0,0,1,.81,3.64,7.73,7.73,0,0,1-.81,3.63,7.73,7.73,0,0,1-.81-3.63A7.86,7.86,0,0,1,508.39,443.37Z" style="fill:#263238"></path><path d="M561.75,443.37a8.56,8.56,0,0,1,0,7.27,7.61,7.61,0,0,1-.81-3.63A7.74,7.74,0,0,1,561.75,443.37Z" style="fill:#263238"></path><path d="M615.1,443.37a7.74,7.74,0,0,1,.81,3.64,7.61,7.61,0,0,1-.81,3.63,8.56,8.56,0,0,1,0-7.27Z" style="fill:#263238"></path><path d="M668.46,443.37a7.86,7.86,0,0,1,.81,3.64,7.73,7.73,0,0,1-.81,3.63,7.73,7.73,0,0,1-.81-3.63A7.86,7.86,0,0,1,668.46,443.37Z" style="fill:#263238"></path><polygon points="33.19 450.64 118.64 450.4 204.1 450.31 375 450.14 545.9 450.31 631.36 450.4 716.81 450.64 631.36 450.88 545.9 450.97 375 451.14 204.1 450.97 118.64 450.88 33.19 450.64" style="fill:#263238"></polygon><polygon points="33.19 387.99 118.64 387.75 204.1 387.66 375 387.49 545.9 387.66 631.36 387.74 716.81 387.99 631.36 388.23 545.9 388.32 375 388.49 204.1 388.32 118.64 388.23 33.19 387.99" style="fill:#263238"></polygon></g><g id="freepik--Car--inject-7"><path d="M211.51,399.21H329.58s-12.93-55.16-59-55.16S213.54,386.89,211.51,399.21Z" style="fill:#92E3A9"></path><path d="M211.51,399.21H329.58s-12.93-55.16-59-55.16S213.54,386.89,211.51,399.21Z" style="opacity:0.2"></path><path d="M554.19,405.16H672.27S659.33,350,613.23,350,556.22,392.84,554.19,405.16Z" style="fill:#92E3A9"></path><path d="M554.19,405.16H672.27S659.33,350,613.23,350,556.22,392.84,554.19,405.16Z" style="opacity:0.2"></path><path d="M184.51,298.59c-2.53,4-7,48.32-7.24,49.87s-3.94,8.33-4,9.63-1,21.25-.45,22.54a53.77,53.77,0,0,0,4.07,6.78c.64.78,17.37,15.18,19.25,15.38s19.18.32,19.5,0,2.33-53.62,54.85-53.62S322.43,405.76,323.4,406s236,5.56,236,5.56c0-8.66.68-60.21,52.2-60.21,33.56,0,50.52,27.67,51.1,48.06.24,8.5-1.18,17.83-.71,17.83,1.55,0,6.85.39,7.75,0s11.89-7.62,12.79-7.88,7.24-.38,8.79-.77,12.4-9.89,12.59-10.27.52-4.14.58-4.46,11.05-13.76,11.57-15.25.71-13.76.71-15-20-33.59-24.61-37.08-37.8-15.12-47.49-16.86-63-9.69-64.92-11.05-92.89-53.53-108.72-57.36c-12.79-3.11-160.85,1.16-168.6,1.55S273.27,247,271.2,247s-25.84-.13-27.26.52,0,6.33,1.81,7.36S188.9,291.61,184.51,298.59Z" style="fill:#92E3A9"></path><path d="M187.9,295.23c.56.51,9.82.74,10.79.36S258,256.41,258,255.28c0-.57-10.94-.42-12.26-.36S186.83,294.26,187.9,295.23Z" style="fill:#455a64"></path><path d="M252.85,294.61c2.52,7.47,308.79,21.42,310.47,17.8,1.24-2.67-26.16-24.67-39-31.84s-49.42-27.91-67.45-30-54.58-1.94-86.43-1.36c-31.59.58-68.8,1.36-82,7C277,261.08,250.84,288.68,252.85,294.61Z" style="fill:#263238"></path><path d="M261.38,290.26c.77,2.8,68.41,10.08,147.68,13.76s118.41,4.26,119.38,3.87-2.72-21.51-4.07-23.25-58.14-30.81-67.06-31.59-57.07-.87-81.39-.48-75,3.29-83.63,6.78C284.71,262.42,260.61,287.45,261.38,290.26Z" style="fill:#455a64"></path><g style="opacity:0.1"><path d="M366.3,252.8l-45.39,45.4c-8.11-.71-15.59-1.42-22.33-2.11l42.1-42.1C349.66,253.46,358.6,253.05,366.3,252.8Z" style="fill:#fff"></path><path d="M528.28,303.41,523.7,308q-6.9,0-24-.45l23.61-23.62a5.67,5.67,0,0,1,1,.72C525.33,285.88,527.49,297,528.28,303.41Z" style="fill:#fff"></path><path d="M400.18,252.37,351.9,300.65q-5.81-.4-11.38-.84l47.38-47.38C391.79,252.4,395.93,252.37,400.18,252.37Z" style="fill:#fff"></path><path d="M503.81,273.53l-33.08,33.06L459,306.15l36.71-36.69C498.46,270.83,501.19,272.2,503.81,273.53Z" style="fill:#fff"></path><path d="M332.56,254.49l-40.84,40.86h0L288.6,295l40.24-40.25Z" style="fill:#fff"></path><path d="M510.85,277.13,481,307l-3.36-.12L508.56,276Z" style="fill:#fff"></path><path d="M468,256.64l-47.88,47.88-3.34-.14,48.75-48.74C466.31,255.94,467.14,256.28,468,256.64Z" style="fill:#fff"></path><path d="M300.15,257.61,266,291.78c-1.14-.23-2.08-.45-2.81-.66l32.78-32.77C297.15,258.1,298.56,257.85,300.15,257.61Z" style="fill:#fff"></path></g><path d="M303.81,257.09c.32,0,.46.42.19,1.16-1.59,4.4-14,29.3-17.09,35.11a2.62,2.62,0,0,1-1.75,1.23L307,296.93a1.77,1.77,0,0,1-1.07-2c.21-1.37,8.32-30.65,10.87-37.83a3,3,0,0,1,1.46-1.54c.43,0-3.73.06-7.67.47C307.11,256.42,303.81,257.09,303.81,257.09Z" style="fill:#263238"></path><path d="M332.61,254.49s.4.22.41,1c.14,6.89.91,41.37.25,43.27a.75.75,0,0,1-.32.45l4.13.33a2.11,2.11,0,0,1-.38-1c-.46-5.83-.88-37.43-.8-43.28a1.79,1.79,0,0,1,.39-1Z" style="fill:#263238"></path><path d="M400.5,253.79c.49,1.53,1.29,46.55,1.29,48s-1.65,1.8-1.65,1.8l25.59,1.18s-1.65-.46-2-1.24-8.33-49.32-8.28-49.95,1.31-1.23,1.31-1.23H399A2.71,2.71,0,0,1,400.5,253.79Z" style="fill:#263238"></path><path d="M189,304.92c-3.14.41-10.21,7.75-10.72,9.3s-2.46,12-1.42,13.57,4.78,5.43,8,5.55,19-7.36,20.41-8.65,2.45-9.16.77-11.69S193,304.4,189,304.92Z" style="fill:#fff"></path><path d="M205.31,324.69c-1.42,1.29-17.19,8.78-20.41,8.66-2.47-.1-5.23-2.39-6.86-4.15a10.42,10.42,0,0,0,6.31,2c1.74-.16,16.5-6.51,18.4-8.24s2-8.28,1.72-9.46-9.78-7.33-9.78-7.33C199.4,308,205,311.3,206.08,313,207.76,315.53,206.73,323.39,205.31,324.69Z" style="fill:#ebebeb"></path><path d="M176,363.38c-.87.88-1.16,7.43-.26,8s6.2.52,7.24,0,3.68-5.42,3.49-7.1S177,362.35,176,363.38Z" style="fill:#fff"></path><path d="M647.62,327.08c2.79,4.51,23.26,12.5,30.91,13.76,4.82.79,21.51,1.84,22.48,1s-7.07-12-11.24-14.73-25-9.69-31.3-9.4S644.81,322.52,647.62,327.08Z" style="fill:#fff"></path><path d="M701,341.81c-1,.87-17.67-.18-22.49-1-7.65-1.26-28.12-9.25-30.91-13.77s4.55-9.1,10.85-9.39a12.45,12.45,0,0,1,1.47,0c-5.86,2.16-7.06,6.74-3.49,9.36s15,8.75,19.6,10c4.4,1.24,20.85,3.8,22.27,2.68a2.89,2.89,0,0,0,.62-2.37C700.45,339.68,701.38,341.48,701,341.81Z" style="fill:#ebebeb"></path><g style="opacity:0.2"><path d="M211.51,357.5c-1-2.33-2-4.7-3-7.07s-1.83-4.77-2.75-7.16-1.73-4.81-2.55-7.23-1.62-4.85-2.33-7.31c1.05,2.34,2,4.71,3,7.08s1.83,4.77,2.74,7.16,1.74,4.8,2.56,7.23S210.8,355,211.51,357.5Z"></path><path d="M175.17,357.5c5.09-.09,10.17-.08,15.26-.07l15.25.17,15.26.36c5.08.16,10.16.33,15.24.6-5.08.1-10.17.09-15.26.08l-15.25-.17-15.25-.37C185.33,358,180.25,357.77,175.17,357.5Z"></path><path d="M415.3,308l1.75,12.39.75,6.22c.12,1,.23,2.07.31,3.12s0,2.09,0,3.14l-.22,25-.2,12.52-.11,6.25-.05,3.13-.24,3.12-1,12.48-1.06,12.47.63-12.49.72-12.49.18-3.12,0-3.12.06-6.26.13-12.5.42-25c0-1,.09-2.1,0-3.12s-.15-2.07-.24-3.11l-.63-6.22Z"></path><path d="M552.73,313.71l2.1,12.46,1,6.23.27,1.55a9.21,9.21,0,0,1,.18,1.58c0,1.05,0,2.11,0,3.16-.07,8.42-.28,16.85-.54,25.27-.07,2.1-.16,4.21-.27,6.31a23.48,23.48,0,0,1-1.21,6.23c-1.16,4.06-2.47,8.06-3.92,12a91.77,91.77,0,0,1-5,11.61l-.78,1.39c-.27.45-.58.89-.86,1.34a11.65,11.65,0,0,1-1,1.28l-.51.62a2,2,0,0,1-.92.28c-2.13.22-4.23.25-6.34.32-16.85.35-33.7.19-50.55.08s-33.69-.37-50.53-.67-33.69-.78-50.53-1.4c-8.41-.34-16.83-.62-25.24-1.38a19.45,19.45,0,0,1-3.2-.5c-.59-.23-.94-.5-1.44-.73s-.94-.45-1.42-.67c-1.9-.86-3.87-1.62-5.78-2.57A22.67,22.67,0,0,1,341,394a49.91,49.91,0,0,1-3.83-5.1c-4.74-7-9.27-14.07-13.81-21.17s-9-14.24-13.46-21.39S301,332,296.7,324.78l-1.61-2.72c-.13-.22-.26-.48-.39-.71l-.18-.36a1.39,1.39,0,0,1-.06-.4l-.15-1.57c-.18-2.1-.35-4.2-.42-6.31,0-.52,0-1,0-1.58a10.2,10.2,0,0,1,.34-1.55c.29-1,.64-2,1-3,.7-2,1.46-3.95,2.24-5.91q-1.15,2.94-2.19,5.93c-.34,1-.68,2-1,3a8.27,8.27,0,0,0-.32,1.54c0,.52,0,1.05,0,1.57.09,2.1.27,4.2.47,6.3l.16,1.57a2.5,2.5,0,0,0,.06.38l.19.33c.12.23.23.45.37.68l1.63,2.7c4.4,7.18,8.88,14.31,13.38,21.43,9,14.25,17.93,28.53,27.38,42.46a51.24,51.24,0,0,0,3.76,5,22,22,0,0,0,5.18,3.42c1.87.93,3.83,1.69,5.77,2.55.48.22,1,.44,1.44.68s1,.56,1.37.69a19.15,19.15,0,0,0,3,.46c8.37.73,16.8,1,25.21,1.3,16.83.58,33.67.94,50.52,1.26s33.68.62,50.52.82,33.69.36,50.53.06c2.09-.06,4.21-.09,6.28-.3l.59-.1.49-.6a10.28,10.28,0,0,0,.93-1.24c.28-.43.59-.86.85-1.31l.78-1.36a91.65,91.65,0,0,0,5-11.53q2.19-5.91,3.95-12a23.15,23.15,0,0,0,1.21-6.12l.29-6.31c.33-8.41.61-16.83.75-25.25,0-1.05,0-2.11,0-3.16A9.21,9.21,0,0,0,556,334l-.25-1.56-1-6.23Z"></path><path d="M661.13,335.13a57.4,57.4,0,0,1-7,5c-2.4,1.55-4.86,3-7.31,4.51s-4.94,2.9-7.45,4.28-5,2.76-7.59,4c2.39-1.6,4.82-3.11,7.25-4.62l7.35-4.45,7.4-4.33,3.71-2.17A36.75,36.75,0,0,0,661.13,335.13Z"></path><polygon points="306.53 359.76 339.35 360.62 372.16 361.62 437.78 363.62 503.4 365.92 536.2 367.07 569 368.36 536.19 367.5 503.38 366.5 437.75 364.49 372.14 362.2 339.33 361.05 306.53 359.76"></polygon><path d="M304.6,312.74l-1.28.06-.32,0c-.07,0-.09.06-.13.16a3,3,0,0,0-.11.61,16.42,16.42,0,0,0-.06,2.53c0,.42.05.85.11,1.25a2.19,2.19,0,0,0,.15.54l0,0h.09l.25,0c.83.07,1.69.09,2.54.12,3.41.11,6.83.22,10.24.28l5.12.15,2.56,0h1.05c.06,0,.1,0,.05,0a1.11,1.11,0,0,0,.13-.31,3.73,3.73,0,0,0,.12-.58,13.88,13.88,0,0,0,.12-2.5,10,10,0,0,0-.12-1.24,2.17,2.17,0,0,0-.13-.48,1.46,1.46,0,0,0-.48-.14c-1.66-.29-3.38-.38-5.08-.55a49.4,49.4,0,0,1,5.15.13,1.34,1.34,0,0,1,.72.22,1.56,1.56,0,0,1,.3.72,9.94,9.94,0,0,1,.19,1.3,15.28,15.28,0,0,1,0,2.62,5.35,5.35,0,0,1-.11.68,1.17,1.17,0,0,1-.47.78.5.5,0,0,1-.25.09h-.19a2.18,2.18,0,0,1-.35,0h-3.22l-5.13-.07c-3.42-.13-6.84-.23-10.26-.48-.86-.07-1.7-.13-2.57-.25a1.35,1.35,0,0,1-.39-.08.69.69,0,0,1-.21-.08.55.55,0,0,1-.16-.22,2.49,2.49,0,0,1-.16-.7,9.69,9.69,0,0,1-.05-1.31,15.88,15.88,0,0,1,.25-2.58,3.79,3.79,0,0,1,.17-.64c0-.05.05-.1.09-.16a.23.23,0,0,1,.21-.09h.32Z"></path><path d="M430.19,315.84l-1.29.07h-.32c-.06,0-.08.06-.12.16a3,3,0,0,0-.11.61,15.37,15.37,0,0,0-.06,2.54c0,.42,0,.84.11,1.25a2,2,0,0,0,.15.54s0,.05,0,0h.1c.06,0,.12,0,.25,0,.82.08,1.69.1,2.54.13,3.41.11,6.82.22,10.24.27l5.12.15,2.56,0h1.05c.06,0,.09,0,.05,0a1.72,1.72,0,0,0,.13-.32,4.56,4.56,0,0,0,.12-.58,13.84,13.84,0,0,0,.11-2.5,10,10,0,0,0-.11-1.24,1.89,1.89,0,0,0-.13-.47,1.25,1.25,0,0,0-.48-.14c-1.66-.29-3.39-.39-5.08-.56a49.14,49.14,0,0,1,5.14.13,1.42,1.42,0,0,1,.73.23,1.53,1.53,0,0,1,.3.71,11.81,11.81,0,0,1,.19,1.31,15.28,15.28,0,0,1,0,2.62,5.65,5.65,0,0,1-.11.68,1.17,1.17,0,0,1-.47.78.4.4,0,0,1-.25.08l-.19,0H450l-.65,0H446.8l-5.13-.07c-3.42-.13-6.84-.23-10.26-.48-.86-.07-1.71-.13-2.58-.25a2.61,2.61,0,0,1-.38-.08,1.8,1.8,0,0,1-.21-.08.74.74,0,0,1-.17-.23,2.75,2.75,0,0,1-.15-.7,9.57,9.57,0,0,1-.05-1.31,16.1,16.1,0,0,1,.25-2.58,3.68,3.68,0,0,1,.17-.63.51.51,0,0,1,.09-.16.23.23,0,0,1,.2-.1l.32,0Z"></path></g><circle cx="269.52" cy="401.8" r="48.84" transform="translate(-205.18 308.27) rotate(-45)" style="fill:#263238"></circle><circle cx="269.52" cy="401.8" r="35.66" transform="translate(-205.18 308.27) rotate(-45)" style="fill:#dbdbdb"></circle><circle cx="269.52" cy="401.8" r="32.88" style="fill:#a6a6a6"></circle><path d="M274.68,393.56H264.36c3.48-5-8.66-22.6-8.66-22.6l5.43-1.82c3.61,6.2,5.42,8,8.39,8s4.78-1.82,8.4-8l5.42,1.82S271.2,388.52,274.68,393.56Z" style="fill:#dbdbdb"></path><path d="M263.49,394.19,260.3,404c-3.71-4.87-24.17,1.25-24.17,1.25l0-5.73c7-1.52,9.3-2.67,10.22-5.5s-.25-5.11-5-10.47l3.4-4.59S257.63,395.94,263.49,394.19Z" style="fill:#dbdbdb"></path><path d="M260.63,405l8.36,6.07c-5.78,2-6.28,23.38-6.28,23.38l-5.47-1.72c.73-7.14.33-9.68-2.07-11.42s-4.94-1.34-11.51,1.54l-3.32-4.65S260.49,411.15,260.63,405Z" style="fill:#dbdbdb"></path><path d="M270.05,411.09l8.36-6.07c.14,6.12,20.29,13.2,20.29,13.2l-3.33,4.66c-6.57-2.89-9.1-3.3-11.5-1.55s-2.8,4.28-2.09,11.42l-5.45,1.72S275.83,413.12,270.05,411.09Z" style="fill:#dbdbdb"></path><path d="M278.74,404l-3.19-9.82c5.86,1.75,18.81-15.22,18.81-15.22l3.41,4.6c-4.78,5.35-5.95,7.63-5,10.46s3.2,4,10.22,5.51l0,5.72S282.45,399.14,278.74,404Z" style="fill:#dbdbdb"></path><circle cx="269.52" cy="401.57" r="9.54" style="fill:#dbdbdb"></circle><circle cx="611.23" cy="401.8" r="48.84" transform="translate(-108.92 273.59) rotate(-23.22)" style="fill:#263238"></circle><circle cx="611.23" cy="401.8" r="35.66" transform="translate(81.53 906.25) rotate(-76.92)" style="fill:#dbdbdb"></circle><circle cx="611.23" cy="401.8" r="32.88" style="fill:#a6a6a6"></circle><path d="M616.39,393.56H606.06c3.49-5-8.66-22.6-8.66-22.6l5.43-1.82c3.62,6.2,5.42,8,8.4,8s4.78-1.82,8.4-8l5.42,1.82S612.91,388.52,616.39,393.56Z" style="fill:#dbdbdb"></path><path d="M605.2,394.19,602,404c-3.71-4.87-24.17,1.25-24.17,1.25l-.05-5.73c7-1.52,9.3-2.67,10.22-5.5s-.26-5.11-5-10.47l3.4-4.59S599.33,395.94,605.2,394.19Z" style="fill:#dbdbdb"></path><path d="M602.34,405l8.35,6.07c-5.78,2-6.27,23.38-6.27,23.38L599,432.75c.72-7.14.33-9.68-2.07-11.42s-4.94-1.34-11.52,1.54l-3.31-4.65S602.2,411.15,602.34,405Z" style="fill:#dbdbdb"></path><path d="M611.76,411.09l8.36-6.07c.14,6.12,20.29,13.2,20.29,13.2l-3.33,4.66c-6.57-2.89-9.1-3.3-11.5-1.55s-2.8,4.28-2.09,11.42L618,434.47S617.54,413.12,611.76,411.09Z" style="fill:#dbdbdb"></path><path d="M620.45,404l-3.2-9.82c5.87,1.75,18.82-15.22,18.82-15.22l3.41,4.6c-4.78,5.35-6,7.63-5,10.46s3.2,4,10.22,5.51l0,5.72S624.16,399.14,620.45,404Z" style="fill:#dbdbdb"></path><circle cx="611.23" cy="401.57" r="9.54" style="fill:#dbdbdb"></circle><path d="M517.22,289.68c-1.78,1.77-1.61,17.7-.32,19s19,2.45,20.41-7.43S520,286.9,517.22,289.68Z" style="fill:#92E3A9"></path><path d="M581.82,299.19h-14.4C530,274.47,478.52,250,478.52,250l8.54-2.06c31.13,15.07,91.15,49.54,92.73,50.64A9,9,0,0,0,581.82,299.19Z" style="fill:#455a64"></path><g style="opacity:0.5"><path d="M211.51,369.91a62.88,62.88,0,0,1,11-13.45,69.23,69.23,0,0,1,14.07-10.24A68.25,68.25,0,0,1,270.11,338l4.37.2,2.18.11c.72.08,1.45.2,2.17.29l4.33.62c1.42.3,2.83.68,4.25,1a53.81,53.81,0,0,1,16,6.87,56.43,56.43,0,0,1,13,11.59,77.71,77.71,0,0,1,9.15,14.75A81.65,81.65,0,0,0,316,359a55.46,55.46,0,0,0-13-11.2c-9.78-6.11-21.4-8.59-32.85-8.7A70,70,0,0,0,253,341,67.58,67.58,0,0,0,237,347a68.93,68.93,0,0,0-14.11,9.87A65.26,65.26,0,0,0,211.51,369.91Z" style="fill:#fff"></path><path d="M553.67,369.91a62.88,62.88,0,0,1,11-13.45,69.23,69.23,0,0,1,14.07-10.24A68.25,68.25,0,0,1,612.27,338l4.37.2,2.18.11c.73.08,1.45.2,2.17.29l4.33.62c1.42.3,2.84.68,4.25,1a53.81,53.81,0,0,1,16,6.87,56.22,56.22,0,0,1,13,11.59,78.27,78.27,0,0,1,9.16,14.75c-2.84-5-5.78-10.06-9.6-14.38a55.46,55.46,0,0,0-13-11.2c-9.78-6.11-21.4-8.59-32.85-8.7A70,70,0,0,0,595.19,341,67.58,67.58,0,0,0,579.11,347,68.93,68.93,0,0,0,565,356.88,65.58,65.58,0,0,0,553.67,369.91Z" style="fill:#fff"></path><path d="M218.58,288.86c7.61-6,15.33-11.78,23.1-17.53s15.63-11.38,23.71-16.74c1-.65,2.05-1.29,3.11-1.91.52-.31,1.07-.6,1.62-.89a11.39,11.39,0,0,1,1.78-.66c2.34-.69,4.68-1.28,7-1.87,4.7-1.15,9.41-2.27,14.17-3.19a83.74,83.74,0,0,1,14.46-1.49c4.84-.1,9.68-.09,14.51.13-4.84,0-9.67.14-14.48.44a83.58,83.58,0,0,0-14.31,1.79c-4.71,1.06-9.41,2.15-14.09,3.35-2.33.6-4.67,1.21-7,1.9a9.27,9.27,0,0,0-1.61.61c-.52.27-1,.56-1.55.87-1,.6-2,1.25-3.05,1.9-8.09,5.24-15.92,10.92-23.81,16.49Z" style="fill:#fff"></path></g><path d="M597.41,352.81c-37.42,8.56-38,50.93-38,58.7,0,0-235.08-5.36-236-5.56-.79-.16-.55-37.26-28.29-51.4,12.46,6.17,28.43,21.09,34.47,42.88.66,2.32,34.89,6,93.41,7.84s109.39.68,119-.67S563,352.66,597.41,352.81Z" style="opacity:0.1"></path><path d="M716.1,378.56c-.52,1.49-11.51,14.92-11.57,15.25s-.38,4.07-.58,4.46-11.05,9.89-12.6,10.27-7.88.51-8.77.77-11.89,7.49-12.8,7.88-6.2,0-7.75,0c-.47,0,1-9.34.71-17.82-.42-14.81-9.47-33.44-27.23-42.55,9.64,2.06,25.71,15.21,32.2,28.78s4.83,14.57,6.35,16.2,6.55-1.66,8.87-2.25,9.88-.77,12.79-1.35,3.38-5.81,5.38-7S713.22,382,716.1,378.56Z" style="opacity:0.1"></path><path d="M254.59,315.93v.22a10.47,10.47,0,0,1-3,7.26,10.6,10.6,0,0,1-15,.22,10.59,10.59,0,0,1,0-15.19,10.6,10.6,0,0,1,15,.22A10.48,10.48,0,0,1,254.59,315.93Z" style="opacity:0.30000000000000004"></path><path d="M226.15,326.19a6.41,6.41,0,0,1-5-3.09,13.45,13.45,0,0,1,0-14.13,6.34,6.34,0,0,1,4.94-3.08,6.19,6.19,0,0,1,5.1,2.86,12.12,12.12,0,0,1,2,5.1,12.33,12.33,0,0,0-1.91-5.19,6.62,6.62,0,0,0-5.17-3.21,6.47,6.47,0,0,0-5.32,3,14,14,0,0,0,0,15.19,6.46,6.46,0,0,0,5.31,3,6.62,6.62,0,0,0,5.17-3.21,12.75,12.75,0,0,0,2.05-6.35,12.5,12.5,0,0,1-2.12,6.26A6.17,6.17,0,0,1,226.15,326.19Zm7.08-12.34c.05.39.12.78.14,1.17C233.34,314.63,233.29,314.24,233.23,313.85Z" style="opacity:0.30000000000000004"></path><path d="M233.41,316c0,.34,0,.68,0,1a12.5,12.5,0,0,1-2.12,6.26,6.17,6.17,0,0,1-5.1,2.87,6.41,6.41,0,0,1-5-3.09,13.45,13.45,0,0,1,0-14.13,6.34,6.34,0,0,1,4.94-3.08,6.19,6.19,0,0,1,5.1,2.86,12.53,12.53,0,0,1,2.12,6.27C233.4,315.36,233.41,315.7,233.41,316Z" style="opacity:0.30000000000000004"></path><path d="M250.45,315.92v.14a6.61,6.61,0,0,1-6.47,6.53,6.64,6.64,0,0,1-4.74-1.86,6.59,6.59,0,0,1,0-9.48,6.64,6.64,0,0,1,4.74-1.86,6.61,6.61,0,0,1,6.47,6.53Z" style="fill:#263238"></path></g><g id="freepik--charging-station--inject-7"><polygon points="146.42 443.34 146.42 293.45 120.81 204.33 99.53 204.33 99.53 443.34 146.42 443.34" style="fill:#92E3A9"></polygon><polygon points="146.42 443.34 146.42 293.45 120.81 204.33 99.53 204.33 99.53 443.34 146.42 443.34" style="opacity:0.1"></polygon><polygon points="80.57 443.34 80.57 293.45 54.97 204.33 33.69 204.33 33.69 443.34 80.57 443.34" style="fill:#92E3A9"></polygon><polygon points="80.57 443.34 80.57 293.45 54.97 204.33 33.69 204.33 33.69 443.34 80.57 443.34" style="opacity:0.1"></polygon><polygon points="71.76 293.45 71.76 443.33 33.68 443.33 33.68 204.34 46.15 204.34 71.76 293.45" style="opacity:0.1"></polygon><rect x="80.57" y="293.45" width="65.84" height="149.88" style="fill:#92E3A9"></rect><polygon points="80.57 293.45 76.75 280.15 126.3 280.15 146.42 293.45 80.57 293.45" style="fill:#92E3A9"></polygon><polygon points="80.57 293.45 76.75 280.15 126.3 280.15 146.42 293.45 80.57 293.45" style="fill:#fff;opacity:0.30000000000000004"></polygon><polygon points="111.58 230.6 120.81 204.33 54.97 204.33 62.52 230.6 111.58 230.6" style="fill:#92E3A9"></polygon><polygon points="111.58 230.6 120.81 204.33 54.97 204.33 62.52 230.6 111.58 230.6" style="fill:#fff;opacity:0.1"></polygon><polygon points="126.3 280.15 111.58 230.6 62.52 230.6 76.75 280.15 126.3 280.15" style="fill:#92E3A9"></polygon><polygon points="126.3 280.15 111.58 230.6 62.52 230.6 76.75 280.15 126.3 280.15" style="opacity:0.2"></polygon><polygon points="116 265.85 107.16 236.09 69.93 236.09 78.48 265.85 116 265.85" style="fill:#fff"></polygon><polygon points="91.87 271.13 91.2 268.88 79.39 268.88 80.04 271.13 91.87 271.13" style="fill:#263238"></polygon><polygon points="117.82 271.13 117.15 268.88 105.35 268.88 106 271.13 117.82 271.13" style="fill:#263238"></polygon><polygon points="112.26 238.35 111.59 236.09 108.91 236.09 109.56 238.35 112.26 238.35" style="fill:#263238"></polygon><polygon points="113.51 242.81 112.84 240.55 110.16 240.55 110.81 242.81 113.51 242.81" style="fill:#263238"></polygon><polygon points="116 251.73 115.33 249.48 112.65 249.48 113.3 251.73 116 251.73" style="fill:#263238"></polygon><polygon points="120.91 306.09 108.19 322.72 116.02 322.72 111.6 337.35 123.82 319.23 116 319.23 120.91 306.09" style="fill:#fff"></polygon><rect x="47.65" y="293.45" width="7.32" height="14.82" style="fill:#263238"></rect><path d="M220.15,443.42h-173c-4.71,0-9-3.81-9-8V308.36c0-5.79,3.78-10,9-10h4.16v5H47.15c-2.39,0-4,2-4,5V435.43c0,1.05,1.65,3,4,3h173a4,4,0,0,0,4-4V322.59a9,9,0,0,1,9-9h10.78v5H233.13a4,4,0,0,0-4,4V434.43A9,9,0,0,1,220.15,443.42Z" style="fill:#263238"></path><rect x="46.48" y="297.89" width="5.15" height="6.03" style="fill:#fff"></rect><rect x="48.77" y="296.77" width="4.7" height="8.27" style="fill:#fff"></rect><rect x="237.41" y="313.09" width="5.15" height="6.03" style="fill:#fff"></rect><circle cx="243.92" cy="316.1" r="5.07" style="fill:#fff"></circle></g><g id="freepik--Character--inject-7"><path d="M394.76,364.58s-25.47,20.58-25.48,20.6c-4.9,3.91-9.11,7.42-11.13,9.44l0,0c-.76.76-1.2,1.3-1.22,1.57,0,0,0,0,0,0,.18,2.24,30.29,42.24,31.81,43.28s4.6-3.21,4.67-5.69-4.61-23-4.61-23L414,390.1Z" style="fill:#f7a9a0"></path><path d="M393.38,433.87c-.07,2.49-3.17,6.74-4.69,5.69s-31.62-41-31.8-43.28a.43.43,0,0,0,0,0c0-.27.46-.81,1.22-1.57a.08.08,0,0,1,0,0c1.16-1.17,3.07-2.85,5.43-4.8,6.07,11.45,23.94,35.59,26.54,38.17,2.09,2.06,1.27-4.27.62-8.13C392,425.7,393.41,432.49,393.38,433.87Z" style="fill:#263238"></path><path d="M408.53,340.06c-1.8,8.91-38.77,44.46-38.77,44.46l25.77,29.75s52.49-52.39,49.75-72.08c-2.38-17.12-28-86-28-86H387.68S410.31,331.3,408.53,340.06Z" style="fill:#37474f"></path><path d="M398.47,407.2c-3.43-4.27-2.39-3.09-5.86-7.32-1.7-2.06-12.88-15.64-14.8-17.29,0,0-.11,0-.08.08,1.29,2.18,12.7,15.55,14.44,17.59,3.55,4.15,2.57,2.92,6.17,7A.08.08,0,0,0,398.47,407.2Z" style="fill:#263238"></path><path d="M413.61,337.13c-.42-2.23-.9-4.44-1.37-6.66q-1.44-6.78-3.05-13.53-3.19-13.38-6.95-26.62c-2.52-8.85-5.19-17.68-8.26-26.36-.38-1.08-.77-2.14-1.16-3.21a.07.07,0,0,0-.13,0c2.66,8.69,5.4,17.36,7.89,26.1s4.78,17.47,6.95,26.26q1.62,6.62,3.08,13.28.74,3.27,1.43,6.55a47.12,47.12,0,0,1,1.24,6.75,10.32,10.32,0,0,1-1.74,6.08c-1.11,1.81-2.41,3.52-3.67,5.23-2.53,3.42-26.6,30.25-27.38,31-.06.06,0,.14.09.09,3.23-2.9,23.66-25,26.25-28.43,1.29-1.7,2.54-3.41,3.77-5.15a20.34,20.34,0,0,0,2.93-5.17A12.07,12.07,0,0,0,413.61,337.13Z" style="fill:#263238"></path><path d="M411.18,256.21l-2.94,78.37c-2.86-19.65-20.55-78.37-20.55-78.37Z" style="fill:#263238"></path><path d="M399.46,401.3s6.38,31.09,6.38,31.11c.09,6.26.28,11.75.64,14.58V447A4.48,4.48,0,0,0,407,449l0,0c1.88,1.24,51.94,2,53.69,1.46s.29-5.61-1.62-7.19-21-10.45-21-10.45l-6.7-31.07Z" style="fill:#f7a9a0"></path><path d="M460.7,450.45C459,451,408.89,450.24,407,449l0,0a4.48,4.48,0,0,1-.49-1.92V447c-.24-1.88-.4-4.92-.51-8.59,11.74,2.87,43.62,5.46,47.69,4.44,2.26-.57-.6-2.44-3.6-4.32a87.23,87.23,0,0,1,9,4.75C461,444.85,462.46,449.9,460.7,450.45Z" style="fill:#263238"></path><path d="M414.41,256.21c0,.62-3,26-3.84,26.64s-6.13,4.25-7.7,5.21c0,0,14.17,44.16,17.93,58.89,5.45,21.35,18.51,85.4,18.51,85.4H404.52s-10.58-61-15.2-81.3c-4-17.42-19.16-69.7-19.16-69.7a44.88,44.88,0,0,1,1.23-25.13S414.41,256.19,414.41,256.21Z" style="fill:#37474f"></path><path d="M438.06,425.58c-5.47,0-3.9-.1-9.37-.07-2.68,0-20.26.13-22.75.59a.06.06,0,0,0,0,.11c2.51.37,20.08,0,22.76-.12,5.47-.14,3.89-.16,9.36-.35C438.16,425.73,438.16,425.58,438.06,425.58Z" style="fill:#263238"></path><path d="M412.12,281.57a67.19,67.19,0,0,0-9.6,6.42.12.12,0,0,0,.13.2c3.25-2,6.58-4,9.72-6.23A.23.23,0,0,0,412.12,281.57Z" style="fill:#263238"></path><path d="M409.46,257.53c0-.11-.24-.11-.22,0a117.3,117.3,0,0,1,1.22,11.74c.12,1.82.21,12-3,11.72-.54,0-.89-.51-1.09-1.28a12.43,12.43,0,0,1-.06-3.11c0-2.13,0-4.26-.17-6.38a58.09,58.09,0,0,0-1.95-11.72.1.1,0,0,0-.2,0,108.13,108.13,0,0,1,1.57,16.35c0,2.64-.69,6.73,2.07,6.71s3.58-6.81,3.64-8.64A60.12,60.12,0,0,0,409.46,257.53Z" style="fill:#263238"></path><path d="M407.57,281.27a17.76,17.76,0,0,0-.38,2.16,4.85,4.85,0,0,0,0,1.74c0,.11.18.09.23,0a6.17,6.17,0,0,0,.46-1.76c.14-.67.29-1.34.41-2A.35.35,0,0,0,407.57,281.27Z" style="fill:#263238"></path><path d="M400.69,407.21c-.09-.81-.2-1.61-.31-2.42-.22-1.54-.48-3.07-.71-4.61-.48-3.1-1-6.18-1.56-9.26-1.09-6.14-2.35-12.27-3.68-18.36-.75-3.45-1.63-6.86-2.55-10.26-.06-.24-.4-.12-.35.11.56,3.11,1.1,6.23,1.73,9.33s1.27,6.19,1.89,9.29c1.21,6.12,2.34,12.25,3.55,18.38.35,1.72.66,3.46,1,5.19.17.86.35,1.72.53,2.58s.45,1.7.6,2.56c0,.08.13.05.12,0C400.8,408.88,400.79,408,400.69,407.21Z" style="fill:#263238"></path><path d="M424.47,360.18c-1.16-5.77-2.73-11.47-4.3-17.14-3.16-11.42-6.88-22.67-10.59-33.92-1.07-3.24-6.37-20.07-6.7-20.9a.07.07,0,1,0-.13,0c.75,3,4.45,16.06,5.35,19,1.78,5.69,3.58,11.38,5.31,17.09,3.41,11.29,6.8,22.58,9.57,34,.77,3.22,1.54,6.42,2.25,9.65s1.31,6.47,2,9.7c0,.08.16.06.16,0C426.79,371.79,425.63,366,424.47,360.18Z" style="fill:#263238"></path><path d="M402.84,390.38c-1.92-11-4.21-22-6.75-32.85s-5.4-21.81-8.53-32.6-6.61-21.47-10.34-32.07a133.69,133.69,0,0,1-4.72-15.25c-1.15-5.15-1.73-10.71-.54-15.9a27.46,27.46,0,0,1,1.19-3.87c0-.09-.09-.16-.13-.07-4.18,9.75-1.46,20.41,1.72,30,1.75,5.26,3.61,10.49,5.33,15.76q2.65,8.13,5.08,16.31c3.21,10.82,6.19,21.71,8.86,32.68s5.05,22,7.14,33.08,3.87,22.3,5.66,33.48c.23,1.46.42,2.92.61,4.38,0,.08.14.08.13,0C406.2,412.41,404.75,401.38,402.84,390.38Z" style="fill:#263238"></path><path d="M403.54,214c2.6,6.27,23.07,36.56,33.74,36.5,11,0,29.52-20.09,32.22-22.53,3.56-3.21-13.39-20.17-16.24-16.4-4.89,6.47-13.93,15.17-16,15.13-3-.06-18.43-12.36-28.29-19C403,203.72,400.66,207,403.54,214Z" style="fill:#f7a9a0"></path><path d="M479.32,216.82c-2,4.34-9.52,11.62-12,12.68s-15.29-11.35-15-14.11,8.13-16.84,12.48-19S481.38,212.33,479.32,216.82Z" style="fill:#f7a9a0"></path><path d="M453.22,212.76a39.27,39.27,0,0,0-1.12-11.45c-1.26-4.42-3.64-10.84-1.29-11.61,4.83-1.58,10.75,14.43,10.75,14.43s1.48,7.49-3.16,9.48A5,5,0,0,1,453.22,212.76Z" style="fill:#f7a9a0"></path><path d="M458.78,201.07c.29,2.51,3.08.73,3.08.73s-3.4,3.53-2.11,6,4.56.12,4.8,0c-.18.19-3.22,3.51-1.66,5.86s4.54-.4,4.73-.58c-.11.23-1.55,3.3,0,4.82,2.74,2.61,6.64-5.15,9.58-6,0,0,2,4.82,2.08,4.95s3.86-7.31,2.51-11.21a2.65,2.65,0,0,0-2.78-1.8s1.51-2.22.34-4.11c-.6-1-2.69-.87-2.69-.87a3.29,3.29,0,0,0,0-3.44,3.19,3.19,0,0,0-2.86-1s.28-2.26-1.08-3.28C470,189.06,458.17,195.69,458.78,201.07Z" style="fill:#f7a9a0"></path><path d="M473.51,194.4a0,0,0,0,0,0-.07,23.55,23.55,0,0,0-11.78,7.55c-.09.12.06.32.19.21A48.27,48.27,0,0,1,473.51,194.4Z" style="fill:#263238"></path><path d="M476.74,198.78a0,0,0,0,0,0-.09,22,22,0,0,0-12.34,9c-.1.16,0,.4.1.22C466.57,205.06,472.75,200.58,476.74,198.78Z" style="fill:#263238"></path><path d="M467.53,213.42c2.88-4.26,6.84-7.17,11.33-9.57.06,0,0-.11-.05-.1a19.92,19.92,0,0,0-7.2,4,13.5,13.5,0,0,0-4.22,5.56C467.35,213.41,467.47,213.52,467.53,213.42Z" style="fill:#263238"></path><path d="M461.78,201.8c-.12.14.22.15.11.29-.46.62-2.89,4.55-1.81,5.79.87,1,2.81.52,3.48,0l1.69-1.19-1.17,1.71a8.6,8.6,0,0,0-1.19,2.48,3,3,0,0,0,.2,2.47,1.71,1.71,0,0,0,2,.8,5.15,5.15,0,0,0,2.21-1.43L469,211,468,213.22a8.08,8.08,0,0,0-.63,1.93,3.24,3.24,0,0,0,.12,1.89,1.56,1.56,0,0,0,1.35,1,3.5,3.5,0,0,0,1.8-.7,27.05,27.05,0,0,0,3.2-2.81c.52-.49,1-1,1.59-1.47a5,5,0,0,1,1.82-1.14,5.44,5.44,0,0,0-1.69,1.29c-.5.51-1,1-1.46,1.58a23,23,0,0,1-3.12,3,4,4,0,0,1-2.13.91,2.21,2.21,0,0,1-2-1.32,4,4,0,0,1-.22-2.34,8.59,8.59,0,0,1,.67-2.16l.68.45a6,6,0,0,1-2.59,1.72,2.5,2.5,0,0,1-1.7-.08,2.84,2.84,0,0,1-1.25-1.12,3.84,3.84,0,0,1-.26-3.13,9.24,9.24,0,0,1,1.35-2.7l.52.52c-.87.57-3,1.34-4.53,0C457.73,206.39,461.11,202.47,461.78,201.8Z" style="fill:#263238"></path><path d="M461.86,201.8a5.18,5.18,0,0,1-1.51.34,1.18,1.18,0,0,1-1.08-.51,2.43,2.43,0,0,1-.23-1.34c0-.5.1-1,.18-1.58a4.11,4.11,0,0,0-.73,1.5,2.4,2.4,0,0,0,.19,1.8,1.65,1.65,0,0,0,.78.63,1.76,1.76,0,0,0,1,0A2.69,2.69,0,0,0,461.86,201.8Z" style="fill:#263238"></path><path d="M413.58,232.26l7.28-17.11A140.08,140.08,0,0,0,408.81,207c-6.06-3.34-8.72-1.87-5.82,6.09C404.93,218.44,413.58,232.26,413.58,232.26Z" style="fill:#dbdbdb"></path><path d="M402.5,209.47a.68.68,0,0,1-.42.61,10,10,0,0,1-.21-1.28A.67.67,0,0,1,402.5,209.47Zm5.76-.67a.66.66,0,1,0,.66.66A.67.67,0,0,0,408.26,208.8Zm0,9.94a.66.66,0,1,0,.66.66A.66.66,0,0,0,408.26,218.74Zm6.41,0a.66.66,0,1,0,.66.66A.65.65,0,0,0,414.67,218.74Zm-9.62-5a.66.66,0,1,0,.66.66A.66.66,0,0,0,405.05,213.76Zm6.42,0a.66.66,0,1,0,.65.66A.66.66,0,0,0,411.47,213.76Zm6.41,0a.66.66,0,1,0,.66.66A.67.67,0,0,0,417.88,213.76Zm-3.21,14.92a.65.65,0,0,0-.11,1.29l.49-1.17A.64.64,0,0,0,414.67,228.68Zm-3.2-5a.66.66,0,1,0,.65.66A.65.65,0,0,0,411.47,223.7Z" style="fill:#fff"></path><path d="M419.06,219.37l-5.48,12.89s-8.65-13.81-10.59-19.15c-1.34-3.66-1.49-5.94-.69-7C404.5,208,413.56,215.07,419.06,219.37Z" style="fill:#a6a6a6"></path><path d="M412.35,228.91c.85-2.46,1.74-4.91,2.74-7.32.49-1.21,1-2.4,1.54-3.59s1.19-2.32,1.71-3.51c0-.07.13,0,.1,0-.58,1.16-1,2.41-1.52,3.6s-1,2.4-1.52,3.6c-1,2.4-2,4.8-2.95,7.22C412.42,229,412.33,229,412.35,228.91Z" style="fill:#263238"></path><path d="M417.71,240.83l1.51,17.07s-38.05-.32-48.33-1.54c0,0,8.14-37.07,19.8-48.58,5.83-5.76,12.32-5,16.27-.59,1,1.11,12.75,15.64,13.77,22C421.61,234.86,417.71,240.83,417.71,240.83Z" style="fill:#dbdbdb"></path><path d="M414.82,241.89a16.55,16.55,0,0,0-3.72-.11,14.85,14.85,0,0,0-1.76.22c-.65.13-1.28.31-1.93.45-.11,0-.06.18,0,.16a16,16,0,0,1,1.94-.23c.6,0,1.18-.13,1.78-.17,1.21-.09,2.41-.17,3.63-.24C414.85,242,414.87,241.9,414.82,241.89Z" style="fill:#263238"></path><path d="M415.33,239.27a33.57,33.57,0,0,0-8.15,1.3,52.83,52.83,0,0,1-8.36,2.22.09.09,0,0,0,0,.17c1.37-.15,2.73-.31,4.09-.52s2.7-.55,4-.84c2.81-.62,5.53-1.68,8.38-2.12C415.47,239.46,415.47,239.26,415.33,239.27Z" style="fill:#263238"></path><path d="M389.68,209.47a.66.66,0,0,1-.66.65.63.63,0,0,1-.33-.09c.28-.35.55-.68.83-1A.66.66,0,0,1,389.68,209.47Zm5.75-.67a.66.66,0,1,0,.66.66A.66.66,0,0,0,395.43,208.8Zm6.42,0a.66.66,0,1,0,.65.66A.66.66,0,0,0,401.85,208.8Zm6.43,0h0a.66.66,0,1,0,0,1.32.64.64,0,0,0,.64-.54Zm-9.64-5a.66.66,0,1,0,.66.66A.66.66,0,0,0,398.64,203.83Zm-15.43,15.29c-.15.3-.29.61-.44.91a.65.65,0,0,0,.5-.64A.63.63,0,0,0,383.21,219.12Zm5.81-.38a.66.66,0,1,0,.66.66A.66.66,0,0,0,389,218.74Zm6.41,0a.66.66,0,1,0,.66.66A.65.65,0,0,0,395.43,218.74Zm6.42,0a.66.66,0,1,0,.65.66A.65.65,0,0,0,401.85,218.74Zm6.41,0a.66.66,0,1,0,.66.66A.66.66,0,0,0,408.26,218.74Zm6.41,0a.66.66,0,1,0,.66.66A.65.65,0,0,0,414.67,218.74Zm-28.58-4.91c-.23.36-.45.73-.66,1.12a.65.65,0,0,0,1-.53A.64.64,0,0,0,386.09,213.83Zm6.14-.07a.66.66,0,1,0,.66.66A.66.66,0,0,0,392.23,213.76Zm6.41,0a.66.66,0,1,0,.66.66A.67.67,0,0,0,398.64,213.76Zm6.41,0a.66.66,0,1,0,.66.66A.66.66,0,0,0,405.05,213.76Zm6.42,0a.66.66,0,1,0,.65.66A.66.66,0,0,0,411.47,213.76Zm-28.86,14.91a.66.66,0,1,0,.66.66A.66.66,0,0,0,382.61,228.67Zm6.41,0a.66.66,0,1,0,.66.66A.67.67,0,0,0,389,228.67Zm6.41,0a.66.66,0,1,0,.66.66A.66.66,0,0,0,395.43,228.67Zm6.42,0a.66.66,0,1,0,.65.66A.66.66,0,0,0,401.85,228.67Zm6.41,0a.66.66,0,1,0,.66.66A.67.67,0,0,0,408.26,228.67Zm6.41,0a.66.66,0,1,0,.66.66A.66.66,0,0,0,414.67,228.67Zm6.06.56c0-.13-.05-.26-.08-.39a.68.68,0,0,0-.22.49.67.67,0,0,0,.38.59C420.79,229.69,420.76,229.45,420.73,229.23Zm-34.92-5.53a.66.66,0,1,0,.66.66A.65.65,0,0,0,385.81,223.7Zm6.42,0a.66.66,0,1,0,.66.66A.65.65,0,0,0,392.23,223.7Zm6.41,0a.66.66,0,1,0,.66.66A.66.66,0,0,0,398.64,223.7Zm6.41,0a.66.66,0,1,0,.66.66A.65.65,0,0,0,405.05,223.7Zm6.42,0a.66.66,0,1,0,.65.66A.65.65,0,0,0,411.47,223.7Zm6.41,0a.66.66,0,1,0,.66.66A.66.66,0,0,0,417.88,223.7Zm-41.69,14.91a.66.66,0,1,0,.66.66A.65.65,0,0,0,376.19,238.61Zm6.42,0a.66.66,0,1,0,.66.66A.65.65,0,0,0,382.61,238.61Zm6.41,0a.66.66,0,1,0,.66.66A.66.66,0,0,0,389,238.61Zm6.41,0a.66.66,0,1,0,.66.66A.65.65,0,0,0,395.43,238.61Zm6.42,0a.66.66,0,1,0,.65.66A.65.65,0,0,0,401.85,238.61Zm6.41,0a.66.66,0,1,0,.66.66A.66.66,0,0,0,408.26,238.61Zm6.41,0a.66.66,0,1,0,.66.66A.65.65,0,0,0,414.67,238.61Zm-35.27-5a.66.66,0,1,0,.66.66A.67.67,0,0,0,379.4,233.63Zm6.41,0a.66.66,0,1,0,.66.66A.66.66,0,0,0,385.81,233.63Zm6.42,0a.66.66,0,1,0,.66.66A.66.66,0,0,0,392.23,233.63Zm6.41,0a.66.66,0,1,0,.66.66A.67.67,0,0,0,398.64,233.63Zm6.41,0a.66.66,0,1,0,.66.66A.66.66,0,0,0,405.05,233.63Zm6.42,0a.66.66,0,1,0,.65.66A.66.66,0,0,0,411.47,233.63Zm6.41,0a.66.66,0,1,0,.66.66A.67.67,0,0,0,417.88,233.63Zm-41.69,14.91a.66.66,0,1,0,.66.66A.66.66,0,0,0,376.19,248.54Zm6.42,0a.66.66,0,1,0,.66.66A.66.66,0,0,0,382.61,248.54Zm6.41,0a.66.66,0,1,0,.66.66A.67.67,0,0,0,389,248.54Zm6.41,0a.66.66,0,1,0,.66.66A.66.66,0,0,0,395.43,248.54Zm6.42,0a.66.66,0,1,0,.65.66A.66.66,0,0,0,401.85,248.54Zm6.41,0a.66.66,0,1,0,.66.66A.67.67,0,0,0,408.26,248.54Zm6.41,0a.66.66,0,1,0,.66.66A.66.66,0,0,0,414.67,248.54Zm-35.27-5a.66.66,0,1,0,.66.66A.66.66,0,0,0,379.4,243.57Zm6.41,0a.66.66,0,1,0,.66.66A.65.65,0,0,0,385.81,243.57Zm6.42,0a.66.66,0,1,0,.66.66A.65.65,0,0,0,392.23,243.57Zm6.41,0a.66.66,0,1,0,.66.66A.66.66,0,0,0,398.64,243.57Zm6.41,0a.66.66,0,1,0,.66.66A.65.65,0,0,0,405.05,243.57Zm6.42,0a.66.66,0,1,0,.65.66A.65.65,0,0,0,411.47,243.57Zm6.49,0h-.08a.66.66,0,1,0,0,1.31.39.39,0,0,0,.18,0Zm-45,9.92a.66.66,0,1,0,.66.66A.67.67,0,0,0,373,253.5Zm6.41,0a.66.66,0,1,0,.66.66A.67.67,0,0,0,379.4,253.5Zm6.41,0a.66.66,0,1,0,.66.66A.66.66,0,0,0,385.81,253.5Zm6.42,0a.66.66,0,1,0,.66.66A.66.66,0,0,0,392.23,253.5Zm6.41,0a.66.66,0,1,0,.66.66A.67.67,0,0,0,398.64,253.5Zm6.41,0a.66.66,0,1,0,.66.66A.66.66,0,0,0,405.05,253.5Zm6.42,0a.66.66,0,1,0,.65.66A.66.66,0,0,0,411.47,253.5Zm6.41,0a.66.66,0,1,0,.66.66A.67.67,0,0,0,417.88,253.5Z" style="fill:#fff"></path><path d="M389.31,207.82c-11.1,8.26-34.63,29-31.31,36.12,5.46,11.67,23,25.53,28.66,29.13,2.45,1.56,17.45-15.24,15.38-17.55-2.49-2.77-21.42-15.26-20.8-17.06.35-1,8.51-13.77,13.76-24.27C401.09,202,393.11,205,389.31,207.82Z" style="fill:#f7a9a0"></path><path d="M392.68,251.41s8.83-.09,14.6.12c3.22.11,8.73.81,11.06,2,3.48,1.75,16.92,11.29,14.68,14.59-2,3-12.54-6.66-12.54-6.66s11.47,8.81,8.36,12-13.53-9.34-13.53-9.34,11.58,9.32,7.86,12.07c-2.81,2.07-12.89-8.71-12.89-8.71s9.9,8.08,7.1,10.34c-3.1,2.5-13-6.87-13-6.87-8.08,4.55-14.93,4.3-18.43,1.7C385.12,272,392.68,251.41,392.68,251.41Z" style="fill:#f7a9a0"></path><path d="M417.24,258.57c8.94,5.85,11.53,11.45,11.43,11.32a63,63,0,0,0-8.19-8.33c-1.29-1.1-2-1.84-3.28-2.94C417.16,258.59,417.2,258.55,417.24,258.57Z" style="fill:#263238"></path><path d="M412.63,262.73a36.45,36.45,0,0,1,9.75,8.41c.1.13,0,.14-.11,0-1.6-1.45-8-7-9.67-8.4A0,0,0,1,1,412.63,262.73Z" style="fill:#263238"></path><path d="M408.42,266a27.12,27.12,0,0,1,7.36,6.73c.1.13,0,.14-.15,0-2.4-2.29-4.27-4.1-7.27-6.66C408.31,266.1,408.36,266,408.42,266Z" style="fill:#263238"></path><path d="M372.82,220l18,4.76a140.06,140.06,0,0,0,6.32-13.1c2.44-6.47.61-8.89-6.86-4.88C385.26,209.44,372.82,220,372.82,220Z" style="fill:#dbdbdb"></path><path d="M389.68,209.46a.66.66,0,1,1-.66-.66A.67.67,0,0,1,389.68,209.46Zm5.75-.66a.66.66,0,1,0,.66.66A.66.66,0,0,0,395.43,208.8Zm-19.24,9.94a.66.66,0,1,0,.66.66A.65.65,0,0,0,376.19,218.74Zm6.42,0a.66.66,0,1,0,.66.66A.65.65,0,0,0,382.61,218.74Zm6.41,0a.66.66,0,1,0,.66.66A.66.66,0,0,0,389,218.74Zm-9-4.62-1,.8a.65.65,0,0,0,.42.16.66.66,0,0,0,.66-.66A.64.64,0,0,0,380,214.12Zm5.83-.36a.66.66,0,1,0,.66.66A.66.66,0,0,0,385.81,213.76Zm6.42,0a.66.66,0,1,0,.66.66A.66.66,0,0,0,392.23,213.76Z" style="fill:#fff"></path><path d="M388.61,224.16c.2,0,2.06.44,2.19.51.5-1,1-2,1.5-2.93.26-.49.53-1,.8-1.45s.61-1.14.88-1.6c0-.08.14,0,.1,0-.28.64-.52,1.11-.77,1.66s-.45,1-.7,1.47c-.52,1-1,2.13-1.59,3.13a19.1,19.1,0,0,1-2.43-.77S388.57,224.16,388.61,224.16Z" style="fill:#263238"></path><path d="M376,218.28c2.56.49,5.11,1,7.64,1.66,1.26.32,2.52.66,3.77,1s2.47.84,3.72,1.18a.06.06,0,0,1,0,.11c-1.23-.41-2.54-.65-3.79-1l-3.78-1c-2.52-.65-5-1.3-7.57-1.89C375.85,218.37,375.89,218.26,376,218.28Z" style="fill:#263238"></path><path d="M396,206.41c.28.79,4.77,5.62,8.46,5,1.2-.2.41-6.81.41-6.81l.05-.5.74-7-8.63-4.23-1.24-.55s-.07,1.93-.14,4.34c0,.11,0,.22,0,.34s0,.27,0,.4c0,.35,0,.72,0,1.09s0,.55,0,.84,0,.58,0,.87A45.64,45.64,0,0,0,396,206.41Z" style="fill:#f7a9a0"></path><path d="M395.68,196.66a14.12,14.12,0,0,0,9.27,7.45l.74-7-8.63-4.23-1.24-.55S395.75,194.25,395.68,196.66Z" style="fill:#263238"></path><path d="M410.56,196.67a2.72,2.72,0,0,1,.31,1,4.86,4.86,0,0,1-1.79,3.86c-1.11,1.07-2.54,2-3.25,3.36a2.54,2.54,0,0,0-.27,1.79,2.29,2.29,0,0,0,1.33,1.41c.63.33,1.45.57,1.79,1.26a2,2,0,0,1-.16,1.79c-.74,1.38-2.49,1.84-3.66,2.78a8,8,0,0,0-2.64,3.91,7.73,7.73,0,0,0,0,4.42,7.94,7.94,0,0,0,.9,2c.45.69,1,1.26,1.51,1.93a2.77,2.77,0,0,1,.64,2.17c-.13.6-1.71,2.22-4.45,2.63-.2,0-.13.38.08.42a9.83,9.83,0,0,0,1.21.19,10.71,10.71,0,0,0,9-3.62,11.13,11.13,0,0,0,2.4-4.82,18.49,18.49,0,0,1,.74-2.93,5.66,5.66,0,0,1,1.59-2.1c1.3-1.11,2.85-1.89,4-3.22a9.42,9.42,0,0,0,1.92-4.15,11,11,0,0,0-2.24-8.94C417.56,199.27,410.47,196.51,410.56,196.67Z" style="fill:#263238"></path><path d="M410.61,196.76a4.34,4.34,0,0,1,.39,1.93,3.65,3.65,0,0,1-.59,1.68,10.21,10.21,0,0,1-2.93,2.62,6.14,6.14,0,0,0-2.5,2.72,3,3,0,0,0-.15,1.62,2.31,2.31,0,0,0,1.05,1.4c.93.61,2.3,1.08,2.45,2.36s-1,2.17-1.9,2.84c-2.08,1.66-5,3.49-4.93,6.53a9.87,9.87,0,0,0,1.5,4.42c.55.94,1.26,2.13.84,3.26,0,0-.08,0-.06,0,.42-1.19-.49-2.26-1.09-3.2a10.49,10.49,0,0,1-1.53-3.67,5.1,5.1,0,0,1,.83-3.75,11.68,11.68,0,0,1,2.89-2.85c.55-.42,1.12-.83,1.66-1.27a4.36,4.36,0,0,0,1.27-1.4,1.5,1.5,0,0,0-.31-1.74,7.75,7.75,0,0,0-1.62-1.08,3,3,0,0,1-1.19-1.21,2.59,2.59,0,0,1-.24-1.37,4.23,4.23,0,0,1,1.42-2.77c1.09-1,2.5-1.67,3.57-2.73a3.55,3.55,0,0,0,1-4.24A.09.09,0,0,1,410.61,196.76Z" style="fill:#263238"></path><path d="M420.9,202a9.07,9.07,0,0,1,1.17,9,11.14,11.14,0,0,1-3.06,4.25,23.28,23.28,0,0,0-3.64,3.37c-1.09,1.49-1.17,3.31-1.52,5.06a9.8,9.8,0,0,1-1.69,3.92,10.56,10.56,0,0,1-6.88,4.24,9.38,9.38,0,0,1-1,.12c-.05,0-.05-.07,0-.07a10.21,10.21,0,0,0,7.12-3.84,10.06,10.06,0,0,0,1.87-3.58c.45-1.62.41-3.36,1.08-4.92a9.72,9.72,0,0,1,3.08-3.51,14.68,14.68,0,0,0,3.53-3.59,9.11,9.11,0,0,0,.43-9.07c-1.74-3.18-5.18-4.71-8.48-5.71l-1.33-.4s0-.1,0-.08C415,198,418.59,199.19,420.9,202Z" style="fill:#263238"></path><path d="M410.46,195.59a1.53,1.53,0,0,1,1.39.65c.12.34-.85,3-1.51,3.29s-1.32-.87-1.32-.87Z" style="fill:#92E3A9"></path><path d="M414.78,186.87c.8,12.36-6.51,14.24-9.17,14.41-2.42.16-10.68.38-12.76-11.83s3.41-16.49,8.93-17.14S414,174.52,414.78,186.87Z" style="fill:#f7a9a0"></path><path d="M411.3,183.76a7.78,7.78,0,0,1-.84-.16,1.37,1.37,0,0,1-.82-.34.45.45,0,0,1,0-.54,1.11,1.11,0,0,1,1.08-.26,1.59,1.59,0,0,1,1,.55A.47.47,0,0,1,411.3,183.76Z" style="fill:#263238"></path><path d="M402.85,185.53c.29,0,.55-.12.84-.18a1.39,1.39,0,0,0,.81-.35.45.45,0,0,0,0-.54,1.11,1.11,0,0,0-1.08-.25,1.58,1.58,0,0,0-1,.58A.47.47,0,0,0,402.85,185.53Z" style="fill:#263238"></path><path d="M404.53,187.64s-.06,0-.06.08c0,.84,0,1.81-.78,2.12,0,0,0,0,0,0C404.63,189.72,404.72,188.43,404.53,187.64Z" style="fill:#263238"></path><path d="M403.75,186.79c-1.36-.06-1.37,2.66-.12,2.71S404.89,186.84,403.75,186.79Z" style="fill:#263238"></path><path d="M403.21,186.93c-.23.15-.47.42-.75.45s-.59-.26-.8-.53c0,0-.05,0-.05,0,0,.52.19,1.06.75,1.14s.88-.39,1-.91C403.39,187,403.31,186.87,403.21,186.93Z" style="fill:#263238"></path><path d="M409.7,187.42s.06,0,.06.08c0,.84.06,1.81.82,2.1,0,0,0,.05,0,.05C409.64,189.5,409.53,188.21,409.7,187.42Z" style="fill:#263238"></path><path d="M410.46,186.55c1.36-.08,1.43,2.64.17,2.72S409.32,186.62,410.46,186.55Z" style="fill:#263238"></path><path d="M411,186.71c.22.14.44.4.7.41s.51-.29.69-.57c0,0,0,0,.05,0,0,.52-.14,1.07-.63,1.18s-.8-.33-.94-.85C410.88,186.81,411,186.66,411,186.71Z" style="fill:#263238"></path><path d="M405,194.4c.19.2.38.48.69.53a2.2,2.2,0,0,0,.91-.17s.05,0,0,.05a1.15,1.15,0,0,1-1.1.4.91.91,0,0,1-.62-.78C404.9,194.38,405,194.37,405,194.4Z" style="fill:#263238"></path><path d="M408.8,191.18s.18,1.26.19,1.85c0,.06-.15.09-.35.1h0a2.83,2.83,0,0,1-2.75-1c0-.06,0-.12.09-.08a4.23,4.23,0,0,0,2.58.72c0-.16-.38-2.14-.29-2.15a5.08,5.08,0,0,1,1.35.3c-.3-2.63-1-5.2-1.28-7.82a.08.08,0,0,1,.15,0,43.18,43.18,0,0,1,1.75,8.36C410.27,191.72,409,191.28,408.8,191.18Z" style="fill:#263238"></path><path d="M408.48,193a3.44,3.44,0,0,1-1.34,1.09,1.54,1.54,0,0,1-.93.08c-.68-.16-.71-.78-.6-1.31a3.31,3.31,0,0,1,.29-.81A4.41,4.41,0,0,0,408.48,193Z" style="fill:#263238"></path><path d="M407.14,194.11a1.54,1.54,0,0,1-.93.08c-.68-.16-.71-.78-.6-1.31A1.59,1.59,0,0,1,407.14,194.11Z" style="fill:#ff9cbd"></path><path d="M393.41,190.47a5.06,5.06,0,0,0,2.81-4.13,13.17,13.17,0,0,0,5.35-4.36c-.08.25-.66,2.08-1,3a13.64,13.64,0,0,0,10.15-7.47,13.33,13.33,0,0,1,3.42,4.91s0-4.77-2.44-8c-3-3.89-13.18-4.89-17.85.24C388.84,180.25,393.41,190.47,393.41,190.47Z" style="fill:#263238"></path><path d="M406.49,183.66a14.1,14.1,0,0,1-4,1.49s0,0,0,0a12.34,12.34,0,0,0,5.7-3.49,11.41,11.41,0,0,0,1.66-2.36,8,8,0,0,0,1-3,.06.06,0,1,1,.12,0,9.25,9.25,0,0,1-.6,3.07,8.6,8.6,0,0,1-1.71,2.58,10,10,0,0,1-2.2,1.68" style="fill:#263238"></path><path d="M394.88,190.27s-2.62-3.92-4.39-3,.13,6.58,2.18,7.39a2.1,2.1,0,0,0,2.83-1.07Z" style="fill:#f7a9a0"></path><path d="M391.07,188.88s0,0,0,.05a5.34,5.34,0,0,1,2.67,3.37A1.16,1.16,0,0,0,392,192s0,.09,0,.08a1.28,1.28,0,0,1,1.41.48,6.27,6.27,0,0,1,.65,1.16c.07.13.3.07.26-.08v0C394.42,191.71,393.05,189.11,391.07,188.88Z" style="fill:#263238"></path><path d="M395.49,193.59a2.26,2.26,0,0,1-1.07,1.09,1.42,1.42,0,0,1-.38.14,2.26,2.26,0,0,1-.93,0l-.42-.13,0,0c-2-.81-4-6.45-2.17-7.37s4.39,3,4.39,3Z" style="fill:#f7a9a0"></path><path d="M391.07,188.88s0,0,0,.05a5.34,5.34,0,0,1,2.67,3.37A1.16,1.16,0,0,0,392,192s0,.09,0,.08a1.28,1.28,0,0,1,1.41.48,6.27,6.27,0,0,1,.65,1.16c.07.13.3.07.26-.08v0C394.42,191.71,393.05,189.11,391.07,188.88Z" style="fill:#263238"></path><path d="M394.72,195.78a5.08,5.08,0,0,1,.07,1.47c-.09.68-.39.86-.63.9a.62.62,0,0,1-.53-.14c-.73-.57-.91-2.84-.94-3.34l.42.13c.07.84.29,2.51.77,2.9a.28.28,0,0,0,.21.05c.2,0,.33-.42.31-1a6.08,6.08,0,0,0-.36-1.92c-.15-.45-.33-.75-.44-.76a.21.21,0,0,1-.24-.17.22.22,0,0,1,.17-.24c.37-.06.68.44.89,1A6.77,6.77,0,0,1,394.72,195.78Z" style="fill:#92E3A9"></path></g></svg>
