<svg xmlns="http://www.w3.org/2000/svg" viewBox="0 0 750 500"><g id="freepik--background-complete--inject-73"><path d="M348.69,64.75a7,7,0,0,0-7.57-.45c-3.08-6.2-11.63-8.94-17.74-5.67a15.28,15.28,0,0,0-29.82.36,5.91,5.91,0,0,1-1.15,3c-1.24,1.26-3.31.84-5.08.7a12.57,12.57,0,0,0-12.68,8.85l76.66-.28C352,68.68,350.83,66.36,348.69,64.75Z" style="fill:#e6e6e6"></path><path d="M424.22,105.65a4.46,4.46,0,0,0-4.81-.29,8.54,8.54,0,0,0-11.24-3.59,9.69,9.69,0,0,0-18.91.22,3.75,3.75,0,0,1-.73,1.92c-.78.8-2.1.53-3.22.45a8,8,0,0,0-8,5.61l48.61-.18A3.87,3.87,0,0,0,424.22,105.65Z" style="fill:#e6e6e6"></path><path d="M545.3,53.28a4.44,4.44,0,0,0-4.81-.29,8.54,8.54,0,0,0-11.24-3.59,9.69,9.69,0,0,0-18.91.22,3.75,3.75,0,0,1-.73,1.92c-.78.8-2.1.53-3.22.44a8,8,0,0,0-8,5.62L547,57.42A3.87,3.87,0,0,0,545.3,53.28Z" style="fill:#f5f5f5"></path><path d="M169.68,95.35a7,7,0,0,0-7.58-.45C159,88.7,150.47,86,144.37,89.23a15.29,15.29,0,0,0-29.83.36,5.78,5.78,0,0,1-1.14,3c-1.24,1.26-3.31.84-5.08.7a12.59,12.59,0,0,0-12.69,8.85l76.67-.28C173,99.28,171.82,97,169.68,95.35Z" style="fill:#e6e6e6"></path><path d="M233,128.67a4.75,4.75,0,0,0-5.14-.31,9.14,9.14,0,0,0-12-3.85,10.37,10.37,0,0,0-20.24.25,4,4,0,0,1-.78,2c-.84.86-2.25.57-3.45.47a8.54,8.54,0,0,0-8.6,6l52-.19A4.12,4.12,0,0,0,233,128.67Z" style="fill:#f5f5f5"></path><path d="M181.74,210.43a4.77,4.77,0,0,0-5.14-.3,9.14,9.14,0,0,0-12-3.85,10.38,10.38,0,0,0-20.24.24,4,4,0,0,1-.78,2c-.84.86-2.25.57-3.45.48a8.54,8.54,0,0,0-8.6,6l52-.19A4.13,4.13,0,0,0,181.74,210.43Z" style="fill:#f5f5f5"></path><path d="M704.5,108.94a4.77,4.77,0,0,0-5.14-.3,9.14,9.14,0,0,0-12-3.85,10.38,10.38,0,0,0-20.24.24,4,4,0,0,1-.78,2c-.84.86-2.25.58-3.45.48a8.54,8.54,0,0,0-8.6,6l52-.19A4.14,4.14,0,0,0,704.5,108.94Z" style="fill:#f5f5f5"></path><g id="freepik--freepik--background-complete--inject-481--inject-73"><polygon points="667.09 212.54 666.25 166.35 640.36 166.35 640.36 176.88 621.3 176.88 621.3 61.52 584.65 61.52 584.65 106.93 573.66 106.93 573.66 84.25 545.06 84.25 545.06 194.83 504.74 194.83 504.74 155.76 479.46 155.76 479.46 71.06 448.26 71.06 448.26 127.53 418.93 127.53 418.93 249.18 396.21 249.18 396.21 189.94 372.75 189.94 372.75 151.82 347.83 151.82 347.83 122.56 320.02 137.22 320.02 215.53 290.7 215.53 290.7 199.37 251.52 199.37 251.52 312.86 707.49 313.08 707.49 212.54 667.09 212.54" style="fill:#ebebeb"></polygon><path d="M374.66,312.92V144.07H343.51v169C353.37,312.84,374.66,312.92,374.66,312.92Z" style="fill:#e6e6e6"></path><path d="M346.29,313.08V220.22H282.17v92.66Z" style="fill:#fafafa"></path><path d="M424.19,313V176.62H387.87V312.93Z" style="fill:#e0e0e0"></path><rect x="390.63" y="181.96" width="4.4" height="9.08" style="fill:#fafafa"></rect><rect x="399.43" y="181.96" width="4.4" height="9.08" style="fill:#fafafa"></rect><rect x="408.24" y="181.96" width="4.4" height="9.08" style="fill:#fafafa"></rect><rect x="417.04" y="181.96" width="4.4" height="9.08" style="fill:#fafafa"></rect><rect x="390.63" y="197.2" width="4.4" height="9.08" style="fill:#fafafa"></rect><rect x="399.43" y="197.2" width="4.4" height="9.08" style="fill:#fafafa"></rect><rect x="408.24" y="197.2" width="4.4" height="9.08" style="fill:#fafafa"></rect><rect x="417.04" y="197.2" width="4.4" height="9.08" style="fill:#fafafa"></rect><rect x="390.63" y="212.42" width="4.4" height="9.08" style="fill:#fafafa"></rect><rect x="399.43" y="212.42" width="4.4" height="9.08" style="fill:#fafafa"></rect><rect x="408.24" y="212.42" width="4.4" height="9.08" style="fill:#fafafa"></rect><rect x="417.04" y="212.42" width="4.4" height="9.08" style="fill:#fafafa"></rect><rect x="390.63" y="227.65" width="4.4" height="9.08" style="fill:#fafafa"></rect><rect x="399.43" y="227.65" width="4.4" height="9.08" style="fill:#fafafa"></rect><rect x="408.24" y="227.65" width="4.4" height="9.08" style="fill:#fafafa"></rect><rect x="417.04" y="227.65" width="4.4" height="9.08" style="fill:#fafafa"></rect><rect x="390.63" y="242.87" width="4.4" height="9.08" style="fill:#fafafa"></rect><rect x="399.43" y="242.87" width="4.4" height="9.08" style="fill:#fafafa"></rect><rect x="408.24" y="242.87" width="4.4" height="9.08" style="fill:#fafafa"></rect><rect x="417.04" y="242.87" width="4.4" height="9.08" style="fill:#fafafa"></rect><rect x="390.63" y="258.09" width="4.4" height="9.08" style="fill:#fafafa"></rect><rect x="399.43" y="258.09" width="4.4" height="9.08" style="fill:#fafafa"></rect><rect x="408.24" y="258.09" width="4.4" height="9.08" style="fill:#fafafa"></rect><rect x="417.04" y="258.09" width="4.4" height="9.08" style="fill:#fafafa"></rect><rect x="390.63" y="273.32" width="4.4" height="9.08" style="fill:#fafafa"></rect><rect x="399.43" y="273.32" width="4.4" height="9.08" style="fill:#fafafa"></rect><rect x="408.24" y="273.32" width="4.4" height="9.08" style="fill:#fafafa"></rect><rect x="417.04" y="273.32" width="4.4" height="9.08" style="fill:#fafafa"></rect><rect x="390.63" y="288.55" width="4.4" height="9.08" style="fill:#fafafa"></rect><rect x="399.43" y="288.55" width="4.4" height="9.08" style="fill:#fafafa"></rect><rect x="408.24" y="288.55" width="4.4" height="9.08" style="fill:#fafafa"></rect><rect x="417.04" y="288.55" width="4.4" height="9.08" style="fill:#fafafa"></rect><path d="M550.41,313V157.2H475.1V313.06S549.84,313.08,550.41,313Z" style="fill:#f5f5f5"></path><rect x="480.76" y="163.41" width="9.13" height="10.46" style="fill:#e6e6e6"></rect><rect x="499.03" y="163.41" width="9.13" height="10.46" style="fill:#e6e6e6"></rect><rect x="517.29" y="163.41" width="9.13" height="10.46" style="fill:#e6e6e6"></rect><rect x="535.56" y="163.41" width="9.13" height="10.46" style="fill:#e6e6e6"></rect><rect x="480.76" y="180.96" width="9.13" height="10.46" style="fill:#e6e6e6"></rect><rect x="499.03" y="180.96" width="9.13" height="10.46" style="fill:#e6e6e6"></rect><rect x="517.29" y="180.96" width="9.13" height="10.46" style="fill:#e6e6e6"></rect><rect x="535.56" y="180.96" width="9.13" height="10.46" style="fill:#e6e6e6"></rect><rect x="480.76" y="198.51" width="9.13" height="10.46" style="fill:#e6e6e6"></rect><rect x="499.03" y="198.51" width="9.13" height="10.46" style="fill:#e6e6e6"></rect><rect x="517.29" y="198.51" width="9.13" height="10.46" style="fill:#e6e6e6"></rect><rect x="535.56" y="198.51" width="9.13" height="10.46" style="fill:#e6e6e6"></rect><rect x="480.76" y="216.05" width="9.13" height="10.46" style="fill:#e6e6e6"></rect><rect x="499.03" y="216.05" width="9.13" height="10.46" style="fill:#e6e6e6"></rect><rect x="517.29" y="216.05" width="9.13" height="10.46" style="fill:#e6e6e6"></rect><rect x="535.56" y="216.05" width="9.13" height="10.46" style="fill:#e6e6e6"></rect><rect x="480.76" y="233.6" width="9.13" height="10.46" style="fill:#e6e6e6"></rect><rect x="499.03" y="233.6" width="9.13" height="10.46" style="fill:#e6e6e6"></rect><rect x="517.29" y="233.6" width="9.13" height="10.46" style="fill:#e6e6e6"></rect><rect x="535.56" y="233.6" width="9.13" height="10.46" style="fill:#e6e6e6"></rect><rect x="480.76" y="251.14" width="9.13" height="10.46" style="fill:#e6e6e6"></rect><rect x="499.03" y="251.14" width="9.13" height="10.46" style="fill:#e6e6e6"></rect><rect x="517.29" y="251.14" width="9.13" height="10.46" style="fill:#e6e6e6"></rect><rect x="535.56" y="251.14" width="9.13" height="10.46" style="fill:#e6e6e6"></rect><rect x="480.76" y="268.7" width="9.13" height="10.46" style="fill:#e6e6e6"></rect><rect x="499.03" y="268.7" width="9.13" height="10.46" style="fill:#e6e6e6"></rect><rect x="517.29" y="268.7" width="9.13" height="10.46" style="fill:#e6e6e6"></rect><rect x="535.56" y="268.7" width="9.13" height="10.46" style="fill:#e6e6e6"></rect><rect x="480.76" y="286.24" width="9.13" height="10.46" style="fill:#e6e6e6"></rect><rect x="499.03" y="286.24" width="9.13" height="10.46" style="fill:#e6e6e6"></rect><rect x="517.29" y="286.24" width="9.13" height="10.46" style="fill:#e6e6e6"></rect><rect x="535.56" y="286.24" width="9.13" height="10.46" style="fill:#e6e6e6"></rect><rect x="349.25" y="155.55" width="8.41" height="9.64" style="fill:#fafafa"></rect><rect x="349.25" y="171.71" width="8.41" height="9.64" style="fill:#fafafa"></rect><rect x="349.25" y="187.89" width="8.41" height="9.64" style="fill:#fafafa"></rect><rect x="349.25" y="204.05" width="8.41" height="9.64" style="fill:#fafafa"></rect><rect x="349.25" y="220.22" width="8.41" height="9.64" style="fill:#fafafa"></rect><rect x="349.25" y="236.39" width="8.41" height="9.64" style="fill:#fafafa"></rect><rect x="349.25" y="252.56" width="8.41" height="9.64" style="fill:#fafafa"></rect><rect x="349.25" y="268.73" width="8.41" height="9.64" style="fill:#fafafa"></rect><rect x="360.5" y="155.55" width="8.41" height="9.64" style="fill:#fafafa"></rect><rect x="360.5" y="171.71" width="8.41" height="9.64" style="fill:#fafafa"></rect><rect x="360.5" y="187.89" width="8.41" height="9.64" style="fill:#fafafa"></rect><rect x="360.5" y="204.05" width="8.41" height="9.64" style="fill:#fafafa"></rect><rect x="360.5" y="220.22" width="8.41" height="9.64" style="fill:#fafafa"></rect><rect x="360.5" y="236.39" width="8.41" height="9.64" style="fill:#fafafa"></rect><rect x="360.5" y="252.56" width="8.41" height="9.64" style="fill:#fafafa"></rect><rect x="360.5" y="268.73" width="8.41" height="9.64" style="fill:#fafafa"></rect><rect x="455.4" y="82.26" width="9.13" height="10.46" style="fill:#fafafa"></rect><rect x="455.4" y="99.8" width="9.13" height="10.46" style="fill:#fafafa"></rect><rect x="455.4" y="116.15" width="9.13" height="10.46" style="fill:#fafafa"></rect><rect x="455.4" y="133.69" width="9.13" height="10.46" style="fill:#fafafa"></rect><rect x="455.4" y="151.23" width="9.13" height="10.46" style="fill:#fafafa"></rect><rect x="455.4" y="168.79" width="9.13" height="10.46" style="fill:#fafafa"></rect><rect x="455.4" y="186.33" width="9.13" height="10.46" style="fill:#fafafa"></rect><rect x="455.4" y="203.88" width="9.13" height="10.46" style="fill:#fafafa"></rect><rect x="592.54" y="67.05" width="9.13" height="10.46" style="fill:#fafafa"></rect><rect x="592.54" y="84.59" width="9.13" height="10.46" style="fill:#fafafa"></rect><rect x="592.54" y="102.14" width="9.13" height="10.46" style="fill:#fafafa"></rect><rect x="592.54" y="119.68" width="9.13" height="10.46" style="fill:#fafafa"></rect><rect x="592.54" y="137.24" width="9.13" height="10.46" style="fill:#fafafa"></rect><rect x="592.54" y="154.78" width="9.13" height="10.46" style="fill:#fafafa"></rect><rect x="592.54" y="172.33" width="9.13" height="10.46" style="fill:#fafafa"></rect><rect x="592.54" y="189.87" width="9.13" height="10.46" style="fill:#fafafa"></rect><rect x="612.1" y="147.65" width="54.99" height="165.43" style="fill:#e6e6e6"></rect><rect x="620.23" y="155.81" width="16.12" height="10.46" style="fill:#fafafa"></rect><rect x="620.23" y="173.36" width="16.12" height="10.46" style="fill:#fafafa"></rect><rect x="620.23" y="190.9" width="16.12" height="10.46" style="fill:#fafafa"></rect><rect x="620.23" y="208.46" width="16.12" height="10.46" style="fill:#fafafa"></rect><rect x="620.23" y="226" width="16.12" height="10.46" style="fill:#fafafa"></rect><rect x="620.23" y="243.54" width="16.12" height="10.46" style="fill:#fafafa"></rect><rect x="620.23" y="261.09" width="16.12" height="10.46" style="fill:#fafafa"></rect><rect x="620.23" y="278.64" width="16.12" height="10.46" style="fill:#fafafa"></rect><rect x="641.8" y="155.81" width="16.12" height="10.46" style="fill:#fafafa"></rect><rect x="641.8" y="173.36" width="16.12" height="10.46" style="fill:#fafafa"></rect><rect x="641.8" y="190.9" width="16.12" height="10.46" style="fill:#fafafa"></rect><rect x="641.8" y="208.46" width="16.12" height="10.46" style="fill:#fafafa"></rect><rect x="641.8" y="226" width="16.12" height="10.46" style="fill:#fafafa"></rect><rect x="641.8" y="243.54" width="16.12" height="10.46" style="fill:#fafafa"></rect><rect x="641.8" y="261.09" width="16.12" height="10.46" style="fill:#fafafa"></rect><rect x="641.8" y="278.64" width="16.12" height="10.46" style="fill:#fafafa"></rect><path d="M582.11,313V198.51h-24V313Z" style="fill:#e0e0e0"></path><rect x="559.95" y="203.14" width="2.91" height="7.8" style="fill:#fafafa"></rect><rect x="565.77" y="203.14" width="2.91" height="7.8" style="fill:#fafafa"></rect><rect x="571.57" y="203.14" width="2.91" height="7.8" style="fill:#fafafa"></rect><rect x="577.39" y="203.14" width="2.91" height="7.8" style="fill:#fafafa"></rect><rect x="559.95" y="216.22" width="2.91" height="7.8" style="fill:#fafafa"></rect><rect x="565.77" y="216.22" width="2.91" height="7.8" style="fill:#fafafa"></rect><rect x="571.57" y="216.22" width="2.91" height="7.8" style="fill:#fafafa"></rect><rect x="577.39" y="216.22" width="2.91" height="7.8" style="fill:#fafafa"></rect><rect x="559.95" y="229.3" width="2.91" height="7.8" style="fill:#fafafa"></rect><rect x="565.77" y="229.3" width="2.91" height="7.8" style="fill:#fafafa"></rect><rect x="571.57" y="229.3" width="2.91" height="7.8" style="fill:#fafafa"></rect><rect x="577.39" y="229.3" width="2.91" height="7.8" style="fill:#fafafa"></rect><rect x="559.95" y="242.38" width="2.91" height="7.8" style="fill:#fafafa"></rect><rect x="565.77" y="242.38" width="2.91" height="7.8" style="fill:#fafafa"></rect><rect x="571.57" y="242.38" width="2.91" height="7.8" style="fill:#fafafa"></rect><rect x="577.39" y="242.38" width="2.91" height="7.8" style="fill:#fafafa"></rect><rect x="559.95" y="255.48" width="2.91" height="7.8" style="fill:#fafafa"></rect><rect x="565.77" y="255.48" width="2.91" height="7.8" style="fill:#fafafa"></rect><rect x="571.57" y="255.48" width="2.91" height="7.8" style="fill:#fafafa"></rect><rect x="577.39" y="255.48" width="2.91" height="7.8" style="fill:#fafafa"></rect><rect x="559.95" y="268.56" width="2.91" height="7.8" style="fill:#fafafa"></rect><rect x="565.77" y="268.56" width="2.91" height="7.8" style="fill:#fafafa"></rect><rect x="571.57" y="268.56" width="2.91" height="7.8" style="fill:#fafafa"></rect><rect x="577.39" y="268.56" width="2.91" height="7.8" style="fill:#fafafa"></rect><rect x="559.95" y="281.64" width="2.91" height="7.8" style="fill:#fafafa"></rect><rect x="565.77" y="281.64" width="2.91" height="7.8" style="fill:#fafafa"></rect><rect x="571.57" y="281.64" width="2.91" height="7.8" style="fill:#fafafa"></rect><rect x="577.39" y="281.64" width="2.91" height="7.8" style="fill:#fafafa"></rect><rect x="559.95" y="294.72" width="2.91" height="7.8" style="fill:#fafafa"></rect><rect x="565.77" y="294.72" width="2.91" height="7.8" style="fill:#fafafa"></rect><rect x="571.57" y="294.72" width="2.91" height="7.8" style="fill:#fafafa"></rect><rect x="577.39" y="294.72" width="2.91" height="7.8" style="fill:#fafafa"></rect><rect x="287.02" y="224.1" width="7.77" height="6.55" style="fill:#e6e6e6"></rect><rect x="302.57" y="224.1" width="7.77" height="6.55" style="fill:#e6e6e6"></rect><rect x="318.11" y="224.1" width="7.77" height="6.55" style="fill:#e6e6e6"></rect><rect x="333.66" y="224.1" width="7.77" height="6.55" style="fill:#e6e6e6"></rect><rect x="287.02" y="235.07" width="7.77" height="6.55" style="fill:#e6e6e6"></rect><rect x="302.57" y="235.07" width="7.77" height="6.55" style="fill:#e6e6e6"></rect><rect x="318.11" y="235.07" width="7.77" height="6.55" style="fill:#e6e6e6"></rect><rect x="333.66" y="235.07" width="7.77" height="6.55" style="fill:#e6e6e6"></rect><rect x="287.02" y="246.04" width="7.77" height="6.55" style="fill:#e6e6e6"></rect><rect x="302.57" y="246.04" width="7.77" height="6.55" style="fill:#e6e6e6"></rect><rect x="318.11" y="246.04" width="7.77" height="6.55" style="fill:#e6e6e6"></rect><rect x="333.66" y="246.04" width="7.77" height="6.55" style="fill:#e6e6e6"></rect><rect x="287.02" y="257.02" width="7.77" height="6.55" style="fill:#e6e6e6"></rect><rect x="302.57" y="257.02" width="7.77" height="6.55" style="fill:#e6e6e6"></rect><rect x="318.11" y="257.02" width="7.77" height="6.55" style="fill:#e6e6e6"></rect><rect x="333.66" y="257.02" width="7.77" height="6.55" style="fill:#e6e6e6"></rect><rect x="287.02" y="267.98" width="7.77" height="6.55" style="fill:#e6e6e6"></rect><rect x="302.57" y="267.98" width="7.77" height="6.55" style="fill:#e6e6e6"></rect><rect x="318.11" y="267.98" width="7.77" height="6.55" style="fill:#e6e6e6"></rect><rect x="333.66" y="267.98" width="7.77" height="6.55" style="fill:#e6e6e6"></rect><rect x="287.02" y="278.95" width="7.77" height="6.55" style="fill:#e6e6e6"></rect><rect x="302.57" y="278.95" width="7.77" height="6.55" style="fill:#e6e6e6"></rect><rect x="318.11" y="278.95" width="7.77" height="6.55" style="fill:#e6e6e6"></rect><rect x="333.66" y="278.95" width="7.77" height="6.55" style="fill:#e6e6e6"></rect><rect x="287.02" y="289.92" width="7.77" height="6.55" style="fill:#e6e6e6"></rect><rect x="302.57" y="289.92" width="7.77" height="6.55" style="fill:#e6e6e6"></rect><rect x="318.11" y="289.92" width="7.77" height="6.55" style="fill:#e6e6e6"></rect><rect x="333.66" y="289.92" width="7.77" height="6.55" style="fill:#e6e6e6"></rect></g><path d="M673.73,337.67H493a5.87,5.87,0,0,1-5.86-5.86V68.54A5.86,5.86,0,0,1,493,62.68H673.73a5.86,5.86,0,0,1,5.87,5.86V331.81A5.87,5.87,0,0,1,673.73,337.67ZM493,62.93a5.61,5.61,0,0,0-5.61,5.61V331.81a5.61,5.61,0,0,0,5.61,5.61H673.73a5.62,5.62,0,0,0,5.62-5.61V68.54a5.62,5.62,0,0,0-5.62-5.61Z" style="fill:#e0e0e0"></path><path d="M465.31,337.67H284.56a5.87,5.87,0,0,1-5.86-5.86V68.54a5.86,5.86,0,0,1,5.86-5.86H465.31a5.86,5.86,0,0,1,5.86,5.86V331.81A5.87,5.87,0,0,1,465.31,337.67ZM284.56,62.93A5.61,5.61,0,0,0,279,68.54V331.81a5.61,5.61,0,0,0,5.61,5.61H465.31a5.61,5.61,0,0,0,5.61-5.61V68.54a5.61,5.61,0,0,0-5.61-5.61Z" style="fill:#e0e0e0"></path><path d="M257,337.67H76.27a5.87,5.87,0,0,1-5.87-5.86V68.54a5.86,5.86,0,0,1,5.87-5.86H257a5.86,5.86,0,0,1,5.86,5.86V331.81A5.87,5.87,0,0,1,257,337.67ZM76.27,62.93a5.62,5.62,0,0,0-5.62,5.61V331.81a5.62,5.62,0,0,0,5.62,5.61H257a5.61,5.61,0,0,0,5.61-5.61V68.54A5.61,5.61,0,0,0,257,62.93Z" style="fill:#e0e0e0"></path><rect y="398.74" width="750" height="0.12" style="fill:#e0e0e0"></rect><rect x="653.63" y="428.12" width="55.73" height="0.42" style="fill:#ebebeb"></rect><rect x="495.04" y="432.68" width="14.63" height="0.42" style="fill:#ebebeb"></rect><rect x="40.64" y="415.32" width="72.67" height="0.42" style="fill:#ebebeb"></rect><rect x="128.3" y="415.32" width="10.66" height="0.42" style="fill:#ebebeb"></rect><rect x="173.59" y="422.42" width="157.61" height="0.42" style="fill:#ebebeb"></rect></g><g id="freepik--Shadow--inject-73"><path d="M660.72,437.17c0,2.63-111.07,4.76-248.08,4.76s-248.07-2.13-248.07-4.76,111.06-4.76,248.07-4.76S660.72,434.54,660.72,437.17Z" style="fill:#f5f5f5"></path></g><g id="freepik--Sign--inject-73"><rect x="247.45" y="215.04" width="6.74" height="188.28" style="fill:#263238"></rect><rect x="218.32" y="150.65" width="67.48" height="67.48" rx="2.75" style="fill:#77BF8F"></rect><path d="M262,166a12.82,12.82,0,0,1,5.77,4.79,14.65,14.65,0,0,1,0,14.81,12.82,12.82,0,0,1-5.77,4.82,21.72,21.72,0,0,1-8.84,1.67h-8.81v11.27h-7.25v-39h16.06A21.55,21.55,0,0,1,262,166ZM260,184a7.95,7.95,0,0,0,0-11.48q-2.46-2-7.19-2h-8.48V186h8.48Q257.52,186,260,184Z" style="fill:#fff"></path><rect x="247.45" y="215.04" width="6.74" height="188.28" style="fill:#fff"></rect><rect x="218.32" y="150.65" width="67.48" height="67.48" rx="2.75" style="fill:#fff"></rect></g><g id="freepik--speech-bubble--inject-73"><path d="M156.73,173.67a20.83,20.83,0,1,0-34-4.36l-2.24,5.84,6.61-.09.24.24A20.84,20.84,0,0,0,156.73,173.67Z" style="fill:#77BF8F"></path><path d="M164.08,155.32a.24.24,0,0,1-.25-.22,20.45,20.45,0,0,0-11-15.81.26.26,0,0,1-.11-.34.25.25,0,0,1,.33-.11,21,21,0,0,1,11.23,16.21.23.23,0,0,1-.22.27Z" style="fill:#77BF8F"></path><path d="M164.21,161.5h-.06a.26.26,0,0,1-.19-.31,7.25,7.25,0,0,0,.08-3,.25.25,0,0,1,.21-.29.25.25,0,0,1,.29.2,7.75,7.75,0,0,1-.09,3.18A.26.26,0,0,1,164.21,161.5Z" style="fill:#77BF8F"></path><polygon points="140.8 168.65 131.25 161.54 133.73 158.2 140.13 162.97 148.93 152.48 152.11 155.15 140.8 168.65" style="fill:#fff"></polygon></g><g id="freepik--character-2--inject-73"><polygon points="695.83 389.45 169.97 401.77 169.97 311.83 700.88 311.83 695.83 389.45" style="fill:#263238"></polygon><g id="freepik--freepik--Car--inject-7--inject-73"><path d="M149.74,334.91v45.61a22.28,22.28,0,0,0,15.71,21.29l3.71,1.13a22,22,0,0,0,7.08,1l24.55-.57a62.22,62.22,0,1,1,120.39-2.87l249.9-5.94a63.4,63.4,0,0,1-.59-8.81,62.22,62.22,0,1,1,124.43.54c0,1.21-.09,2.41-.09,3.6.32-.13.67-.26,1-.42l8.54-3.82a23.54,23.54,0,0,0,13.85-21.45v-92.9a23.52,23.52,0,0,0-12.57-20.82l-64.23-33.78a3.39,3.39,0,0,1,.42-6.17l7.86-2.82a1.83,1.83,0,0,0-.36-3.55c-30.52-4.26-149.22-19.78-211.62-12.15-72,8.81-141,71.27-141,71.27-53-2-102.41,16.46-123.69,25.71a26.58,26.58,0,0,0-14.56,15.86l-7.29,21.58A27,27,0,0,0,149.74,334.91Z" style="fill:#77BF8F"></path><path d="M571.15,394.54a60.24,60.24,0,0,1-.54-8.27c0-1.41,0-2.8.13-4.19l-45.19-18.49a19.08,19.08,0,0,0-8.35-1.36L360,372.55a18.61,18.61,0,0,0-7.37,2l-29.86,15.36a63.6,63.6,0,0,1-1.52,10.54Z" style="fill:#263238"></path><path d="M718.24,364.18v-2.37l-25.56,7.82a62.38,62.38,0,0,1,2.24,16.64c0,1.21-.09,2.41-.09,3.6.32-.13.67-.26,1-.42l8.56-3.82A23.54,23.54,0,0,0,718.24,364.18Z" style="fill:#263238"></path><path d="M157,396.9a22.24,22.24,0,0,0,8.53,4.91l3.71,1.13a22,22,0,0,0,7.08,1l24.56-.57a61.49,61.49,0,0,1-1.92-9.48Z" style="fill:#263238"></path><path d="M632.87,318.21a68,68,0,0,0-67.54,76.47l5.9-.14a62.22,62.22,0,1,1,123.84-8.27c0,1.21-.1,2.41-.1,3.6.33-.13.67-.26,1-.42l4.91-2.23v-1a68.13,68.13,0,0,0-68.07-68.06Z" style="fill:#263238"></path><path d="M260.7,318.21a68.06,68.06,0,0,0-65.87,85.27l6-.13a62.22,62.22,0,1,1,120.39-2.87l6-.15a68.05,68.05,0,0,0-66.59-82.12Z" style="fill:#263238"></path><path d="M319.93,265.88a4.68,4.68,0,0,0,1.37,7.84l26,7.28a17.68,17.68,0,0,0,7.05.53l192.6-23.86a19.64,19.64,0,0,0,12.37-6.86l25.27-29.44a6.5,6.5,0,0,0,1.51-3.59c.35-3.35-1.75-6.37-4.69-6.75-46.12-6.11-104.44-11.67-141.26-7.17C391.87,209.74,343.28,246,319.93,265.88Z" style="fill:#77BF8F"></path><path d="M320.8,265.88a4.68,4.68,0,0,0,1.37,7.84l26,7.28a17.63,17.63,0,0,0,7,.53l49.09-3.36,139.21-9.54c4.69-.6,11.93-9.21,17.06-16.2l24.88-31.06a6.44,6.44,0,0,0,1.52-3.59c.34-3.35-1.76-6.37-4.69-6.75-46.13-6.11-104.44-11.67-141.26-7.17C392.74,209.74,344.15,246,320.8,265.88Z" style="fill:#fff;isolation:isolate;opacity:0.8"></path><g style="opacity:0.30000000000000004"><path d="M446.62,284.23a2.39,2.39,0,0,1-1.43-3h0a4,4,0,0,1,3.59-2.64l22.92-1a2.34,2.34,0,0,1,.91.13,2.41,2.41,0,0,1,1.45,3.06h0a4,4,0,0,1-3.61,2.64l-22.92.95A2.55,2.55,0,0,1,446.62,284.23Z"></path></g><path d="M617.09,218.55a4.92,4.92,0,0,0-.41,6.94l5.43,5.91a5.1,5.1,0,0,0,2.3,1.39L691,251.26a13.68,13.68,0,0,0,3.55.47h13.23c-.69-.45-1.39-.88-2.13-1.27l-64.23-33.81h0a3.28,3.28,0,0,1-1.48-4.39l-20.86,5.22A4.9,4.9,0,0,0,617.09,218.55Z" style="fill:#77BF8F"></path><path d="M202.44,297.66l-22.72-2.48-13.05,5.34a9.36,9.36,0,0,0-5.53,6.36h0a6.54,6.54,0,0,0,.67,4.91l.23.39a7.16,7.16,0,0,0,7.17,3.5l13.1-1.8a7.66,7.66,0,0,0,3.52-1.45L200.94,301Z" style="fill:#fff;isolation:isolate"></path><path d="M296.82,263.23l3.62,1a8.77,8.77,0,0,0,8.07-1.74c21.06-17.81,57.67-45.14,97.17-57.87a.75.75,0,0,0,.42-.34.74.74,0,0,0-.29-1l-4.91-2.52C343.91,220.54,296.82,263.23,296.82,263.23Z" style="fill:#77BF8F"></path><path d="M296.82,263.23l3.62,1a8.77,8.77,0,0,0,8.07-1.74c21.06-17.81,57.67-45.14,97.17-57.87a.75.75,0,0,0,.42-.34.74.74,0,0,0-.29-1l-4.91-2.52C343.91,220.54,296.82,263.23,296.82,263.23Z" style="fill:#fff;isolation:isolate;opacity:0.8"></path><path d="M512.74,287.28,321.27,301l3.6,23.62a49.84,49.84,0,0,0,7.85,20.22l16,23.92,163.43-22.1,77.26-59.35Z" style="fill:#fff;isolation:isolate;opacity:0.2"></path><circle cx="632.81" cy="386.26" r="51.84" style="fill:#263238"></circle><circle cx="632.81" cy="386.26" r="31.78" style="fill:#fff;isolation:isolate;opacity:0.4"></circle><g style="opacity:0.30000000000000004"><rect x="630.27" y="357.68" width="5.09" height="21.37" rx="2.54" style="fill:#fff"></rect></g><g style="opacity:0.30000000000000004"><rect x="630.27" y="393.49" width="5.09" height="21.37" rx="2.54" style="fill:#fff"></rect></g><g style="opacity:0.30000000000000004"><path d="M642.52,383.6a2.54,2.54,0,0,1-3.46-1h0a2.54,2.54,0,0,1,.93-3.46l14.1-8.19a2.56,2.56,0,0,1,3.49.94h0a2.55,2.55,0,0,1-.94,3.47l-14.09,8.18Z" style="fill:#fff"></path></g><g style="opacity:0.30000000000000004"><path d="M611.51,401.43a2.54,2.54,0,0,1-3.46-.93h0A2.53,2.53,0,0,1,609,397l14.1-8.19h0a2.53,2.53,0,0,1,3.47.92h0a2.54,2.54,0,0,1-.92,3.48l-14.11,8.19Z" style="fill:#fff"></path></g><g style="opacity:0.30000000000000004"><path d="M654.09,401.5,640,393.31a2.56,2.56,0,0,1-.93-3.49h0a2.56,2.56,0,0,1,3.49-.91l14.09,8.18a2.55,2.55,0,0,1,.94,3.47h0A2.56,2.56,0,0,1,654.09,401.5Z" style="fill:#fff"></path></g><g style="opacity:0.30000000000000004"><path d="M626.55,382.66a2.53,2.53,0,0,1-3.47.92L609,375.4h0a2.53,2.53,0,0,1-.93-3.46h0a2.55,2.55,0,0,1,3.47-.93l14.11,8.19h0a2.53,2.53,0,0,1,.91,3.47h0Z" style="fill:#fff"></path></g><path d="M628.55,386.25a4.25,4.25,0,0,1,4.26-4.25h0a4.27,4.27,0,1,1-4.27,4.27Z" style="fill:#263238"></path><circle cx="260.7" cy="386.27" r="51.84" style="fill:#263238"></circle><circle cx="260.7" cy="386.27" r="31.78" style="fill:#fff;isolation:isolate;opacity:0.4"></circle><g style="opacity:0.30000000000000004"><rect x="258.15" y="357.68" width="5.09" height="21.37" rx="2.54" style="fill:#fff"></rect></g><g style="opacity:0.30000000000000004"><rect x="258.15" y="393.49" width="5.09" height="21.37" rx="2.54" style="fill:#fff"></rect></g><g style="opacity:0.30000000000000004"><path d="M270.39,383.6a2.51,2.51,0,0,1-3.43-1h0a2.53,2.53,0,0,1,.91-3.47L282,371h0a2.54,2.54,0,0,1,3.47.94h0a2.54,2.54,0,0,1-.94,3.47l-14.09,8.18Z" style="fill:#fff"></path></g><g style="opacity:0.30000000000000004"><path d="M235.93,400.5h0a2.53,2.53,0,0,1,.93-3.46l14.1-8.19a2.55,2.55,0,0,1,3.49.92h0a2.55,2.55,0,0,1-.94,3.48l-14.09,8.19A2.55,2.55,0,0,1,235.93,400.5Z" style="fill:#fff"></path></g><g style="opacity:0.30000000000000004"><path d="M285.45,400.57a2.54,2.54,0,0,1-3.46.93l-14.12-8.19a2.56,2.56,0,0,1-.91-3.49h0a2.53,2.53,0,0,1,3.47-.91l14.09,8.18h0a2.54,2.54,0,0,1,.93,3.46h0Z" style="fill:#fff"></path></g><g style="opacity:0.30000000000000004"><path d="M254.43,382.68a2.53,2.53,0,0,1-3.47.9l-14.1-8.18h0a2.53,2.53,0,0,1-.93-3.46h0a2.56,2.56,0,0,1,3.49-.94l14.09,8.19h0a2.55,2.55,0,0,1,.93,3.47h0Z" style="fill:#fff"></path></g><path d="M260.7,382h0a4.27,4.27,0,1,1-4.27,4.27A4.28,4.28,0,0,1,260.7,382Z" style="fill:#263238"></path><path d="M712.8,288.48a3.27,3.27,0,0,0,2.15-4.1c-.6-10.92-2.92-20.63-9.61-27.31a3.27,3.27,0,0,0-3.39-2.31l-39.5,3.73a3.27,3.27,0,0,0-2.08,5.45l11.31,12.2a3.29,3.29,0,0,0,1.44.9l37.82,11.46A3.36,3.36,0,0,0,712.8,288.48Z" style="isolation:isolate;opacity:0.30000000000000004"></path><path d="M318.47,268.36a4.46,4.46,0,0,0,2.83,5.34l26,7.28a16.56,16.56,0,0,0,6.89.7l8.39-.65L355,240c-17.81,11.7-19,12.24-35,25.86A4.5,4.5,0,0,0,318.47,268.36Z" style="fill:#263238"></path><path d="M487.69,202.51l-16.32,71.16,21.35-1.54,9.74-68.95Q495,202.74,487.69,202.51Z" style="fill:#263238"></path><path d="M555.42,258.83l30-37.46a6.45,6.45,0,0,0,1.55-3.64c.34-3.35-1.77-6.37-4.71-6.73-6.14-.84-12.68-1.64-19.21-2.43" style="fill:#263238"></path><path d="M342.09,275.59a9.38,9.38,0,0,1-9.5-9.28h0a9.42,9.42,0,0,1,7.27-9.28l12.52-2.93,3.19,21-13.23.51Z" style="fill:#77BF8F"></path><polygon points="351.9 275.23 355.57 275.08 352.38 254.1 348.81 254.94 351.9 275.23" style="isolation:isolate;opacity:0.30000000000000004"></polygon></g><path d="M476,365.19h-.05a.24.24,0,0,1-.19-.29c.14-.65,13.82-64.88,15.57-73.64.67-3.35.92-9.78.72-19.11a.25.25,0,0,1,.25-.25h0a.25.25,0,0,1,.25.24c.2,9.37,0,15.83-.73,19.22-1.75,8.76-15.44,73-15.57,73.64A.26.26,0,0,1,476,365.19Z" style="opacity:0.6000000000000001"></path><path d="M352.65,374.83a.26.26,0,0,1-.21-.11c-.17-.26-17.83-26.39-23.9-37.33-6.23-11.25-10.27-65.16-10.44-67.45a.26.26,0,0,1,.23-.27.25.25,0,0,1,.27.24c0,.55,4.2,56.08,10.38,67.24,6,10.91,23.7,37,23.88,37.29a.25.25,0,0,1-.07.35A.23.23,0,0,1,352.65,374.83Z" style="opacity:0.6000000000000001"></path><path d="M179.72,295.43a.24.24,0,0,1-.23-.15.26.26,0,0,1,.14-.33c13.54-5.54,57-16,67.14-17.61,12.83-2.06,56.67-12.88,57.11-13a.26.26,0,0,1,.31.19.25.25,0,0,1-.19.3c-.44.11-44.3,10.93-57.15,13-9.9,1.59-53.83,12.18-67,17.59Z" style="opacity:0.6000000000000001"></path><path d="M617.09,218.55a4.92,4.92,0,0,0-.41,6.94l5.43,5.91a5.1,5.1,0,0,0,2.3,1.39L691,251.26a13.68,13.68,0,0,0,3.55.47h13.23c-.69-.45-1.39-.88-2.13-1.27l-64.23-33.81h0a3.28,3.28,0,0,1-1.48-4.39l-20.86,5.22A4.9,4.9,0,0,0,617.09,218.55Z" style="fill:#fff;isolation:isolate;opacity:0.8"></path><path d="M451.23,259s-.85-5.46,2.2-15l-.5-.26c.42-1.33.87-2.56,1.28-3.63a.16.16,0,0,0,0,0l-13.36,7.76c.22,3.08-1.05,9-1.77,11.48,0,0-1.79,4.5,4.25,4.86C447.75,264.44,451.23,259,451.23,259Z" style="fill:#b97964"></path><path d="M440.51,252.15l7.61-1.5c-.75,2.33-2.91,5.07-8.18,5.15A23.14,23.14,0,0,0,440.51,252.15Z" style="opacity:0.2"></path><path d="M454.5,233.69c-1.12,8.31-1.58,13-6.11,17-6.81,5.92-16.62,1.47-18-7-1.25-7.65.78-20,9.2-22.6A11.56,11.56,0,0,1,454.5,233.69Z" style="fill:#b97964"></path><path d="M456.28,223.73c-.81-4.68-12.33-5.56-15.72-3.44-.51.31,6.07,4.24,5.67,4.05l3.13,1.35c.5-.08,1.44.57,1.83,2.15,0,0-1.29,12.77,2.07,16.73,3-1.21,3.55-6.27,4.69-9.22C459.64,231,461.76,224.48,456.28,223.73Z" style="fill:#263238"></path><path d="M457.29,240.89A7.84,7.84,0,0,1,453,245.2c-2.58,1.06-3.32-1.73-2.89-4.34.38-2.35,1.28-5.19,4-5.13S458.23,238.48,457.29,240.89Z" style="fill:#b97964"></path><path d="M442.38,235.24c-.06.85-.56,1.51-1.12,1.46s-1-.77-.9-1.63.56-1.51,1.12-1.46S442.44,234.38,442.38,235.24Z" style="fill:#263238"></path><path d="M434,234.8c-.06.85-.56,1.51-1.12,1.46s-1-.77-.9-1.63.57-1.51,1.12-1.46S434.06,234,434,234.8Z" style="fill:#263238"></path><path d="M436.75,234.52s-3,4-4,5.72c1.11,1.16,3.2.81,3.2.81Z" style="fill:#a24e3f"></path><path d="M444.76,231.36a.4.4,0,0,1-.4-.08,3.25,3.25,0,0,0-2.78-.85.41.41,0,0,1-.49-.29.39.39,0,0,1,.29-.48,4,4,0,0,1,3.52,1,.4.4,0,0,1,0,.56A.36.36,0,0,1,444.76,231.36Z" style="fill:#263238"></path><path d="M438.87,244.36h-.35a.39.39,0,0,1-.35-.41.39.39,0,0,1,.41-.34,4.62,4.62,0,0,0,3.38-1.37.37.37,0,0,1,.53,0,.38.38,0,0,1-.05.53A5.56,5.56,0,0,1,438.87,244.36Z" style="fill:#263238"></path><path d="M451.56,240.92h0a.24.24,0,0,1-.2-.29,4.35,4.35,0,0,1,1-2.05,2.9,2.9,0,0,1,1.64-1,1.77,1.77,0,0,1,1.83.78.25.25,0,0,1-.09.34.25.25,0,0,1-.34-.1A1.3,1.3,0,0,0,454,238a2.44,2.44,0,0,0-1.35.86,3.81,3.81,0,0,0-.87,1.82A.26.26,0,0,1,451.56,240.92Z" style="opacity:0.2"></path><path d="M430.56,230.93a.41.41,0,0,1-.19-.13.4.4,0,0,1,0-.57,4,4,0,0,1,3.53-.89.41.41,0,0,1,.27.5.38.38,0,0,1-.49.27,3.11,3.11,0,0,0-2.79.74A.42.42,0,0,1,430.56,230.93Z" style="fill:#263238"></path><path d="M458.26,220.23c-.52-1.91-2.92-2.45-4.79-2.17.22-2.29-2.69-3.77-4.56-3.81a3.77,3.77,0,0,0-2.7.69c.15,0-.53-1.16-1-1.65a5.93,5.93,0,0,0-6.45-1.61,6.44,6.44,0,0,0-3.91,5.62,3.2,3.2,0,0,0-4.54-.15,3.62,3.62,0,0,0,0,4.78,2.79,2.79,0,1,0,.33,5.58c0,1.69.06,3.81.05,5.51l2.6-6.09c1.18-.36,1.43-.87,1.74-2.13.77,1.64,2.11,1.58,3.85,1.61a4.8,4.8,0,0,0,4.26-2.66,5.15,5.15,0,0,0,4.26,3.13,3.72,3.72,0,0,0,3.75-3.35,4,4,0,0,0,4.93,1.63A4.37,4.37,0,0,0,458.26,220.23Z" style="fill:#263238"></path><path d="M438.31,257.7l-31.9,10.66-29.34-1.5L375.94,276s8.76,1.84,17.3,3l27.44-1.88c9.15-2.17,18.18-4.81,18.18-4.81Z" style="fill:#b97964"></path><path d="M431.58,276.85l3.29-19.11,12.41-2.16c.55-.08,10.63-.91,13.66,10.15l.68,8.8Z" style="fill:#263238"></path><path d="M441.67,275.94c-.69,0-20.45,1.91-20.45,1.91l-3.57-14.12a162.83,162.83,0,0,1,17.22-6c9.19-2.48,17.81-3.25,19.79,1C458.43,266.91,441.67,275.94,441.67,275.94Z" style="fill:#263238"></path><path d="M367.44,262.68c-.56.34-7.21,7.22-7.21,7.22l1.29,8.51,8.36-8.63Z" style="fill:#263238"></path><path d="M377.45,280.45h0a3,3,0,0,1-4-1.35l-13.27-26.87a3,3,0,0,1,1.35-4h0a3,3,0,0,1,4,1.35l13.26,26.88A3,3,0,0,1,377.45,280.45Z" style="fill:#263238"></path><path d="M387,267.59l-10.92-1.46-3.16-3.82s-5.55-.5-6.74.49-2.39,4.14-2.39,4.14-1.44,2.58,1,3.94c0,0-1.57,2.3,1.23,3.92,0,0-2.06,1.16.9,2.38a9.17,9.17,0,0,0,7.1-.14,15.31,15.31,0,0,1,5-.38l9.93,1.75Z" style="fill:#b97964"></path><path d="M555.42,190.66h0c-9.52-1.32-21.43-2.38-33.53-3a.38.38,0,1,1,0-.75c12.13.6,24.06,1.66,33.6,3a.38.38,0,0,1-.05.75Z" style="fill:#77BF8F"></path><path d="M565.07,191.66h0l-5.9-.6a.37.37,0,0,1-.34-.4.36.36,0,0,1,.41-.34c1.94.19,3.91.38,5.9.59a.38.38,0,0,1,.34.41A.39.39,0,0,1,565.07,191.66Z" style="fill:#77BF8F"></path></g><g id="freepik--traffic-cones--inject-73"><polygon points="231.13 454.33 241.33 441.86 249.27 381.77 259.47 381.77 269.87 441.92 279.5 454.33 231.13 454.33" style="fill:#77BF8F"></polygon><polygon points="243.14 428.18 267.5 428.18 263.99 407.89 245.82 407.89 243.14 428.18" style="fill:#fff"></polygon><polygon points="241.33 441.86 269.87 441.92 279.5 454.33 231.13 454.33 241.33 441.86" style="opacity:0.30000000000000004"></polygon><polygon points="430.25 454.33 440.45 441.86 448.39 381.77 458.59 381.77 468.99 441.92 478.62 454.33 430.25 454.33" style="fill:#77BF8F"></polygon><polygon points="442.26 428.18 466.62 428.18 463.11 407.89 444.94 407.89 442.26 428.18" style="fill:#fff"></polygon><polygon points="440.45 441.86 468.99 441.92 478.62 454.33 430.25 454.33 440.45 441.86" style="opacity:0.30000000000000004"></polygon><polygon points="605.79 452.02 615.99 439.55 623.93 379.46 634.13 379.46 644.53 439.61 654.16 452.02 605.79 452.02" style="fill:#77BF8F"></polygon><polygon points="617.8 425.87 642.16 425.87 638.65 405.58 620.48 405.58 617.8 425.87" style="fill:#fff"></polygon><polygon points="615.99 439.55 644.53 439.61 654.16 452.02 605.79 452.02 615.99 439.55" style="opacity:0.30000000000000004"></polygon></g><g id="freepik--character-1--inject-73"><polygon points="50.73 437.93 59.49 438.79 65.96 416.62 52.64 415.17 50.73 437.93" style="fill:#eec1bb"></polygon><path d="M60.75,434.93H57.63a2.21,2.21,0,0,0-1.78.92c-1.8,2.47-3.16,1.54-5.12-.78-1.25-.14-1.58,1.29-1.68,1.67l-2.34,8.5a1.34,1.34,0,0,0,.92,1.65A1.21,1.21,0,0,0,48,447H72.78c3.94,0,4.76-4,3.14-4.34-7.3-1.61-12.47-3.76-14.72-5.88C60.78,436.35,61.21,436.08,60.75,434.93Z" style="fill:#263238"></path><path d="M67.54,437.34a1.27,1.27,0,0,0,.53-1,.56.56,0,0,0-.26-.55c-1-.69-4.89,1.13-5.32,1.35a.18.18,0,0,0-.11.1.18.18,0,0,0,.11.22,13.75,13.75,0,0,0,2.92.38A3.52,3.52,0,0,0,67.54,437.34Zm0-1.27a.21.21,0,0,1,.1.23,1,1,0,0,1-.39.75c-.89.66-3,.37-4.18.16C64.72,436.5,67,435.69,67.57,436.07Z" style="fill:#77BF8F"></path><path d="M62.62,437.49c1.17-.49,3.63-2.42,3.5-3.44,0-.22-.17-.47-.71-.54-2.14-.25-3.06,3.6-3.06,3.76a.17.17,0,0,0,0,.18.15.15,0,0,0,.13,0Zm2.72-3.67c.4,0,.4.19.4.24.11.62-1.67,2.22-2.95,2.89.27-.89,1.05-3.14,2.41-3.14Z" style="fill:#77BF8F"></path><path d="M60.27,439.3a.2.2,0,0,1-.13,0,.24.24,0,0,1-.08-.34,4,4,0,0,1,2.83-1.83.26.26,0,0,1,.28.21.26.26,0,0,1-.21.29,3.49,3.49,0,0,0-2.48,1.59A.25.25,0,0,1,60.27,439.3Z" style="fill:#77BF8F"></path><path d="M62.21,440.76a.22.22,0,0,1-.13,0,.25.25,0,0,1-.08-.34,4,4,0,0,1,2.83-1.83.26.26,0,0,1,.28.22.25.25,0,0,1-.21.28,3.55,3.55,0,0,0-2.48,1.59A.24.24,0,0,1,62.21,440.76Z" style="fill:#77BF8F"></path><path d="M64.63,442a.2.2,0,0,1-.13,0,.24.24,0,0,1-.08-.34,4,4,0,0,1,2.83-1.83.26.26,0,0,1,.28.22.25.25,0,0,1-.21.28,3.53,3.53,0,0,0-2.48,1.59A.25.25,0,0,1,64.63,442Z" style="fill:#77BF8F"></path><polygon points="62.54 428.34 61.74 431.06 51.44 429.48 51.63 427.25 62.54 428.34" style="opacity:0.30000000000000004"></polygon><polygon points="101.7 437.93 110.46 438.79 116.93 416.62 103.61 415.17 101.7 437.93" style="fill:#eec1bb"></polygon><path d="M111.72,434.93H108.6a2.21,2.21,0,0,0-1.78.92c-1.8,2.47-3.16,1.54-5.12-.78-1.25-.14-1.58,1.29-1.68,1.67l-2.34,8.5a1.34,1.34,0,0,0,.92,1.65A1.21,1.21,0,0,0,99,447h24.77c3.94,0,4.76-4,3.14-4.34-7.3-1.61-12.47-3.76-14.72-5.88C111.75,436.35,112.18,436.08,111.72,434.93Z" style="fill:#263238"></path><path d="M118.51,437.34a1.27,1.27,0,0,0,.53-1,.56.56,0,0,0-.26-.55c-1-.69-4.88,1.13-5.32,1.35a.18.18,0,0,0-.11.1.18.18,0,0,0,.11.22,13.76,13.76,0,0,0,2.93.38A3.5,3.5,0,0,0,118.51,437.34Zm0-1.27a.21.21,0,0,1,.1.23,1,1,0,0,1-.39.75c-.89.66-3,.37-4.18.16C115.69,436.5,118,435.69,118.54,436.07Z" style="fill:#77BF8F"></path><path d="M113.59,437.49c1.17-.49,3.63-2.42,3.5-3.44,0-.22-.17-.47-.7-.54-2.15-.25-3.07,3.6-3.07,3.76a.17.17,0,0,0,.05.18.15.15,0,0,0,.13,0Zm2.72-3.67c.4,0,.4.19.4.24.11.62-1.67,2.22-2.95,2.89.27-.89,1-3.14,2.41-3.14Z" style="fill:#77BF8F"></path><path d="M111.24,439.3a.2.2,0,0,1-.13,0,.24.24,0,0,1-.08-.34,4,4,0,0,1,2.83-1.83.26.26,0,0,1,.28.21.26.26,0,0,1-.21.29,3.49,3.49,0,0,0-2.48,1.59A.25.25,0,0,1,111.24,439.3Z" style="fill:#77BF8F"></path><path d="M113.18,440.76a.22.22,0,0,1-.13,0,.25.25,0,0,1-.08-.34,4,4,0,0,1,2.83-1.83.25.25,0,0,1,.28.22.25.25,0,0,1-.21.28,3.55,3.55,0,0,0-2.48,1.59A.22.22,0,0,1,113.18,440.76Z" style="fill:#77BF8F"></path><path d="M115.6,442a.2.2,0,0,1-.13,0,.24.24,0,0,1-.08-.34,4,4,0,0,1,2.83-1.83.26.26,0,0,1,.28.22.25.25,0,0,1-.21.28,3.53,3.53,0,0,0-2.48,1.59A.25.25,0,0,1,115.6,442Z" style="fill:#77BF8F"></path><polygon points="113.51 428.34 112.71 431.06 102.41 429.48 102.59 427.25 113.51 428.34" style="opacity:0.30000000000000004"></polygon><path d="M120.42,270.88s7.25,32,10.71,60c1.06,8.51,1.26,19.89-.61,28.26l-14,69.54-17.61-1.76c2.77-30,6.62-67,7.73-82.72-3.87-18.44-12.12-40.77-20.24-63Z" style="fill:#77BF8F"></path><path d="M62.58,349.76c.39-1.74,1-5.26,1.81-9.9l-.07,0c.57-6.15,1.63-34.65,3.57-52.83,1.5-11.58,4.46-19.41,7.43-23.25l.43-.54c.49-.61.79-1,.79-1,.57.15,1.13.28,1.69.4l.63.14a89.36,89.36,0,0,0,39.55-1.14c1.94,4.79,3.39,15,4.8,25.56-2.2,2.42-11.86,5.55-22.94,7.63l-3.16,14.29c-1.66,8.86-3.8,17.55-5.61,25.37l-1.89,8.57c-.12.57-.23,1.12-.34,1.67-1,4.93-23.84,84.31-23.84,84.31l-14.9-.87S57.19,373.25,62.58,349.76Z" style="fill:#77BF8F"></path><path d="M96.91,310.46c-.06.29,6.82-24.73,6.82-24.73s5.8,22.34-3,36.31Z" style="isolation:isolate;opacity:0.2"></path><path d="M82.1,197.57s3.5,2.69,8,6.57a16.8,16.8,0,0,0,3.07,2.09c3,1.57,5.65,2.47,6.38,1.05a5.09,5.09,0,0,0,.37-1c.62-2.39.37-5.74-1.56-7.27-2.17-1.73-3.22-3.21-2.83-5.55a17.81,17.81,0,0,1,1.25-4l-1.71-2-8.94-9C86.35,184.42,86.81,194.3,82.1,197.57Z" style="fill:#eec1bb"></path><path d="M95.46,194c-2.46-1.46-5.16-4-4.83-6.89a13.54,13.54,0,0,1,.69-3.11l5,6.62A16.59,16.59,0,0,0,95.46,194Z" style="opacity:0.2"></path><path d="M83.6,168.71c.84,9.19,1,13.09,5.74,17.9,7.13,7.25,18.11,4.81,20-4.3,1.7-8.19,0-21.84-9-25.71A11.82,11.82,0,0,0,83.6,168.71Z" style="fill:#eec1bb"></path><path d="M95,171.61c0,.86.58,1.56,1.18,1.58s1.06-.68,1-1.54-.58-1.57-1.18-1.58S95,170.75,95,171.61Z" style="fill:#263238"></path><path d="M104.56,171.48c0,.83.58,1.52,1.18,1.53s1.06-.65,1-1.49-.58-1.52-1.18-1.53S104.52,170.64,104.56,171.48Z" style="fill:#263238"></path><path d="M93.58,168.31a.4.4,0,0,0,.33-.1,3.35,3.35,0,0,1,3-.85.4.4,0,0,0,.52-.3.48.48,0,0,0-.33-.57,4.17,4.17,0,0,0-3.84,1,.47.47,0,0,0,0,.65A.46.46,0,0,0,93.58,168.31Z" style="fill:#263238"></path><path d="M107.51,167.86a.43.43,0,0,0,.44-.67,4.79,4.79,0,0,0-3.51-2.32.42.42,0,0,0-.44.44.49.49,0,0,0,.45.47,3.8,3.8,0,0,1,2.76,1.86A.51.51,0,0,0,107.51,167.86Z" style="fill:#263238"></path><path d="M87.51,174.47s2.84-4.28,1.67-12.63a2.63,2.63,0,0,1,2.07-3c4-.77,9.27-5.77,15.74,4.16,0,0-3.09-11.9-21.14-7.11-16.07,4.27-5.07,17.89-3.42,19.29S87.51,174.47,87.51,174.47Z" style="fill:#263238"></path><path d="M80.81,176.2a7.4,7.4,0,0,0,4.47,3.47c2.43.61,3.69-3.3,2.86-5.74a4.89,4.89,0,0,0-5.51-3.16C80.3,171.24,79.57,174,80.81,176.2Z" style="fill:#eec1bb"></path><path d="M102.25,180.45a26.34,26.34,0,0,0-1.65,3.39l-.65-.15c-2.92-.68-4-2-4.42-3.18a4.25,4.25,0,0,1,.26-2.84c1.34,1.29,4,2.14,5.46,2.53C101.86,180.38,102.25,180.45,102.25,180.45Z" style="fill:#263238"></path><path d="M101.25,180.2l-.51,1c-2.75-.65-4.6-1.48-5.27-2.52a3.85,3.85,0,0,1,.32-1C97.13,179,99.81,179.81,101.25,180.2Z" style="fill:#fff"></path><path d="M100,183.69c-2.92-.68-4-2-4.42-3.18a9.51,9.51,0,0,1,3.1,1.4A3.58,3.58,0,0,1,100,183.69Z" style="fill:#dc5753"></path><path d="M102.1,171.22a31.15,31.15,0,0,0,3.05,5.59.7.7,0,0,1-.33,1.08,4.52,4.52,0,0,1-2.46,0Z" style="fill:#d4827d"></path><path d="M95.86,170.05l2.11-.5S96.82,171.13,95.86,170.05Z" style="fill:#263238"></path><path d="M105.35,170l2.11-.5S106.31,171.09,105.35,170Z" style="fill:#263238"></path><path d="M108.59,166.9s5.57-6.59,1.86-12c-1.4-2-4-2.35-6.22-3.34-5.22-2.3-9.45-2.77-16.11,3.76-6.93,6.79-8.18,9.07-.54,17.44,0,0-.82-1.09,2-3.58s6-4.71,4.43-7.12a4.07,4.07,0,0,1,2.52,3.14l4.13-1.13a7.86,7.86,0,0,0-1.27-3.19,7.33,7.33,0,0,1,2.83,3.11l3.58.67s-.53-3.28-1.54-4.45C104.26,160.2,107.54,163.56,108.59,166.9Z" style="fill:#263238"></path><path d="M86.27,176.18A.25.25,0,0,1,86,176a3.4,3.4,0,0,0-1-2.14,3.36,3.36,0,0,0-2.19-.92.26.26,0,0,1-.24-.26.24.24,0,0,1,.26-.24,3.85,3.85,0,0,1,3.7,3.52.25.25,0,0,1-.22.27Z" style="opacity:0.2"></path><path d="M119.08,220.25,122,230.63c1,3.47,1.92,6.93,2.93,10.34.5,1.71,1,3.39,1.55,5,.26.81.52,1.62.79,2.36l.4,1,.17.38a.87.87,0,0,1,.07.17c-.09,0,.18.53.57.94a12.09,12.09,0,0,0,1.47,1.31c1.12.93,2.5,1.9,3.76,2.84l-1.06,5.09a17.55,17.55,0,0,1-5.57-.67,13.39,13.39,0,0,1-2.88-1.2,9.75,9.75,0,0,1-3.13-2.64,8.07,8.07,0,0,1-.61-1l-.44-.81c-.25-.49-.47-1-.67-1.44-.42-.94-.78-1.82-1.19-2.72-.68-1.76-1.31-3.52-1.91-5.27-1.19-3.5-2.37-7-3.36-10.55s-2-7-3-10.56Z" style="fill:#eec1bb"></path><path d="M112,203.2A44.88,44.88,0,0,1,122.1,222l-17.3,4.14S100,213.52,102,208.9C104,204.08,107.11,199.45,112,203.2Z" style="fill:#263238"></path><g style="opacity:0.30000000000000004"><path d="M113.1,211.41A19.13,19.13,0,0,1,115,216a41.43,41.43,0,0,1,1.11,7.29l-3.33.95C113,219.79,113,215.86,113.1,211.41Z"></path></g><path d="M69.62,224.65,64.14,206c3.46-5.17,20.6-9.14,20.6-9.14l8.78,3.08L96,197.47s4.33,1,8,2.18c5,1.61,7.64,2.91,8.82,5.66,0,0,2.07,6.1.83,18.66-.34,3.46,0,21.42,1,27.35l5.84,18.49c-20.63,16.07-49.5,1.07-49.5,1.07.93-2.84,4-11.55,4.44-14.32-.3-3.54.12-9-1.38-15.18C73.85,240.18,70.12,225.81,69.62,224.65Z" style="fill:#263238"></path><path d="M71.35,229.78s7.91-10,6.56-14.11l-8.13,7.62Z" style="opacity:0.30000000000000004"></path><path d="M66.58,204.14c-4.33,1.45-8.65,15.15-8.65,15.15l12.73,8.4s7.46-11.07,6.11-16.79C75.62,206.07,72.08,202.28,66.58,204.14Z" style="fill:#263238"></path><path d="M69.84,227.15S62,244,62.15,244.66c.49,2.41,25.6.78,25.6.78l.6,6.74a92.67,92.67,0,0,1-23.1,3.89c-12.09.24-17.6-6.1-14.68-13.65,3.13-8,8.82-22.17,8.82-22.17Z" style="fill:#eec1bb"></path><path d="M62.15,244.66a7.69,7.69,0,0,0-5,1s.25-1.11,2.3-1.87a9.48,9.48,0,0,1,3.13-.35Z" style="opacity:0.30000000000000004"></path><path d="M85.73,244.22s8.1,1.92,8.87,3.52-1.76,1.5-1.76,1.5,2.77.27,2.82,1.46c0,1.43-2.59,1.33-2.59,1.33s2.25.31,2.22,1.37-3,1.2-3,1.2,1.55.52,1.11,1.25-6.79,1-8.68-.11-2-9.32-1.67-11.11.49-2.75,2.69-5.49v5.08Z" style="fill:#eec1bb"></path><path d="M92.84,249.38h0l-4.81-.7a.14.14,0,0,1-.11-.15.12.12,0,0,1,.14-.11l4.81.69a.14.14,0,0,1,.1.15A.13.13,0,0,1,92.84,249.38Z" style="opacity:0.2"></path><path d="M92.93,252.16h0l-4.68-.3c-.06,0-.11-.07-.11-.14a.13.13,0,0,1,.13-.13l4.67.3a.13.13,0,0,1,.11.14A.12.12,0,0,1,92.93,252.16Z" style="opacity:0.2"></path><path d="M92.11,254.73l-3.48-.12a.13.13,0,0,1-.12-.14.14.14,0,0,1,.13-.13l3.48.12a.14.14,0,0,1,.11.14A.12.12,0,0,1,92.11,254.73Z" style="opacity:0.2"></path><path d="M132.28,244.75a16.51,16.51,0,0,1,14.36-15l-1.58,2.64,3-1.79L134.23,248Z" style="fill:#77BF8F"></path><path d="M132.28,244.75a16.51,16.51,0,0,1,14.36-15l-1.58,2.64,3-1.79L134.23,248Z" style="fill:#fff;isolation:isolate;opacity:0.8"></path><path d="M110.58,230.5l4.76-.15,22.79,7.73-20.77,31.73-20.44-5.1a2.19,2.19,0,0,1-1.53-2.7,2.13,2.13,0,0,1,.21-.49l8.25-14.93a1,1,0,0,0,0-1l-1.12-2a1.35,1.35,0,0,1,0-1.32L108.27,232A2.81,2.81,0,0,1,110.58,230.5Z" style="fill:#77BF8F"></path><polygon points="138.13 238.08 151.11 229.75 129.77 261.45 117.36 269.81 138.13 238.08" style="fill:#77BF8F"></polygon><polygon points="138.13 238.08 151.11 229.75 129.77 261.45 117.36 269.81 138.13 238.08" style="isolation:isolate;opacity:0.2"></polygon><path d="M135.58,252.83s-5-1.33-6.15-.46.41,1.69.41,1.69-1.74-.79-2.25.05c-.63,1,1,1.85,1,1.85s-1.45-.57-1.87.2,1.28,1.91,1.28,1.91-1.12-.17-1.16.5,3.54,3.13,5.13,3,5-5.93,5.56-7.32.48-2.48-.54-3.44l-1.38,2.06Z" style="fill:#eec1bb"></path><path d="M129.79,254.15h0l3.1,1.19a.12.12,0,0,0,.13-.08.1.1,0,0,0,0-.13l-3.1-1.18a.09.09,0,0,0-.12.07A.08.08,0,0,0,129.79,254.15Z" style="opacity:0.2"></path><path d="M128.59,256.1h0l2.87,1.42s.09,0,.12-.06a.09.09,0,0,0,0-.13l-2.87-1.42s-.09,0-.12.06A.09.09,0,0,0,128.59,256.1Z" style="opacity:0.2"></path><path d="M128,258.22l2.09,1.13a.11.11,0,0,0,.13-.06.09.09,0,0,0,0-.13L128.12,258s-.1,0-.13.05S128,258.2,128,258.22Z" style="opacity:0.2"></path><rect x="84.37" y="220.25" width="11.95" height="5.9" transform="translate(180.69 446.41) rotate(180)" style="fill:#77BF8F"></rect><path d="M92.15,223.21a1.37,1.37,0,1,0,1.37-1.37A1.36,1.36,0,0,0,92.15,223.21Z" style="fill:#fff"></path><rect x="85.99" y="222.71" width="4.73" height="1" transform="translate(176.71 446.41) rotate(180)" style="fill:#fff"></rect><polygon points="99.26 198.26 95.46 194.57 93.52 199.93 85.06 193.19 80.78 197.89 92.36 207.99 101.5 211.41 103.16 204.24 99.26 198.26" style="fill:#263238"></polygon><path d="M99.26,198.26c.27.41,0,6.64,0,6.64l-5.74-4.3-2.12,4.69-10.21-7,10.45,9.1,1.88-5.53,6.4,5.53Z" style="opacity:0.30000000000000004"></path><circle cx="84.23" cy="179.43" r="1.76" style="fill:#77BF8F"></circle></g></svg>
